<svg fill="none" height="28" viewBox="0 0 28 28" width="28" xmlns="http://www.w3.org/2000/svg"><rect fill="#000" height="4" rx="2" width="4" x="5" y="5"/><rect fill="#000" height="4" rx="2" width="4" x="5" y="19"/><rect fill="#000" height="4" rx="2" width="4" x="19" y="5"/><rect fill="#000" height="4" rx="2" width="4" x="19" y="19"/><g stroke="#000" stroke-linecap="round" stroke-width="2"><path d="m12 21h-.5"/><path d="m21 16v.5"/><path d="m7 16v.5"/><path d="m16.5 21h-.5"/><path d="m21 11.5v.5"/><path d="m7 11.5v.5"/></g><path d="m17.1719 11.2959c-2.6016 0-4.3682-1.77539-4.3682-4.35938v-.28125h-1.1338c-.6855 0-.8525-.54492-.4658-1.06347l1.7227-2.31153c.2724-.36914.6328-.37793.9052 0l1.7139 2.31153c.3779.50976.2109 1.06347-.4482 1.06347h-1.0987v.29004c0 1.85449 1.3184 3.06739 3.1729 3.06739h.3974c.3516 0 .6416.29.6416.6416s-.29.6416-.6416.6416z" fill="#000"/></svg>