<svg fill="none" height="28" viewBox="0 0 28 28" width="28" xmlns="http://www.w3.org/2000/svg" xmlns:xlink="http://www.w3.org/1999/xlink"><mask id="a" fill="#fff"><rect fill="#fff" height="5" rx="1" width="5" x="5" y="5"/></mask><mask id="b" fill="#fff"><rect fill="#fff" height="5" rx="1" width="5" x="5" y="18"/></mask><mask id="c" fill="#fff"><rect fill="#fff" height="5" rx="1" width="5" x="18" y="5"/></mask><mask id="d" fill="#fff"><rect fill="#fff" height="5" rx="1" width="5" x="18" y="18"/></mask><rect height="5" mask="url(#a)" rx="1" stroke="#000" stroke-width="3.4" width="5" x="5" y="5"/><path clip-rule="evenodd" d="m6.5 10v8h1.7v-8zm3.5-1.8v-1.7h8v1.7zm9.8 1.8v8h1.7v-8zm-1.8 11.5v-1.7h-8v1.7z" fill="#000" fill-rule="evenodd"/><g stroke="#000" stroke-width="3.4"><rect height="5" mask="url(#b)" rx="1" width="5" x="5" y="18"/><rect height="5" mask="url(#c)" rx="1" width="5" x="18" y="5"/><rect height="5" mask="url(#d)" rx="1" width="5" x="18" y="18"/></g></svg>