<?xml version="1.0" encoding="UTF-8"?>
<!--Generator: Apple Native CoreSVG 341-->
<!DOCTYPE svg
PUBLIC "-//W3C//DTD SVG 1.1//EN"
       "http://www.w3.org/Graphics/SVG/1.1/DTD/svg11.dtd">
<svg version="1.1" xmlns="http://www.w3.org/2000/svg" xmlns:xlink="http://www.w3.org/1999/xlink" viewBox="0 0 3300 2200">
 <!--glyph: "", point size: 100.0, font version: "21.1d1e1", template writer version: "138.0.0"-->
 <style>.defaults {-sfsymbols-variable-value-mode:color;-sfsymbols-draw-reverses-motion-groups:true}

.monochrome-0 {-sfsymbols-motion-group:1;-sfsymbols-layer-tags:-350c3f0a7013faf0}
.monochrome-1 {-sfsymbols-motion-group:0;-sfsymbols-layer-tags:-350c3f0a7013faf0}

.multicolor-0:tintColor {-sfsymbols-motion-group:1;-sfsymbols-layer-tags:-350c3f0a7013faf0}
.multicolor-1:tintColor {-sfsymbols-motion-group:0;-sfsymbols-layer-tags:-350c3f0a7013faf0}

.hierarchical-0:secondary {-sfsymbols-motion-group:1;-sfsymbols-layer-tags:-350c3f0a7013faf0}
.hierarchical-1:primary {-sfsymbols-motion-group:0;-sfsymbols-layer-tags:-350c3f0a7013faf0}

.SFSymbolsPreviewWireframe {fill:none;opacity:1.0;stroke:black;stroke-width:0.5}
</style>
 <g id="Notes">
  <rect height="2200" id="artboard" style="fill:white;opacity:1" width="3300" x="0" y="0"/>
  <line style="fill:none;stroke:black;opacity:1;stroke-width:0.5;" x1="263" x2="3036" y1="292" y2="292"/>
  <text style="stroke:none;fill:black;font-family:sans-serif;font-size:13;font-weight:bold;" transform="matrix(1 0 0 1 263 322)">Weight/Scale Variations</text>
  <text style="stroke:none;fill:black;font-family:sans-serif;font-size:13;text-anchor:middle;" transform="matrix(1 0 0 1 559.711 322)">Ultralight</text>
  <text style="stroke:none;fill:black;font-family:sans-serif;font-size:13;text-anchor:middle;" transform="matrix(1 0 0 1 856.422 322)">Thin</text>
  <text style="stroke:none;fill:black;font-family:sans-serif;font-size:13;text-anchor:middle;" transform="matrix(1 0 0 1 1153.13 322)">Light</text>
  <text style="stroke:none;fill:black;font-family:sans-serif;font-size:13;text-anchor:middle;" transform="matrix(1 0 0 1 1449.84 322)">Regular</text>
  <text style="stroke:none;fill:black;font-family:sans-serif;font-size:13;text-anchor:middle;" transform="matrix(1 0 0 1 1746.56 322)">Medium</text>
  <text style="stroke:none;fill:black;font-family:sans-serif;font-size:13;text-anchor:middle;" transform="matrix(1 0 0 1 2043.27 322)">Semibold</text>
  <text style="stroke:none;fill:black;font-family:sans-serif;font-size:13;text-anchor:middle;" transform="matrix(1 0 0 1 2339.98 322)">Bold</text>
  <text style="stroke:none;fill:black;font-family:sans-serif;font-size:13;text-anchor:middle;" transform="matrix(1 0 0 1 2636.69 322)">Heavy</text>
  <text style="stroke:none;fill:black;font-family:sans-serif;font-size:13;text-anchor:middle;" transform="matrix(1 0 0 1 2933.4 322)">Black</text>
  <line style="fill:none;stroke:black;opacity:1;stroke-width:0.5;" x1="263" x2="3036" y1="1903" y2="1903"/>
  <g transform="matrix(0.2 0 0 0.2 263 1933)">
   <path d="m46.2402 4.15039c21.7773 0 39.4531-17.627 39.4531-39.4043s-17.6758-39.4043-39.4531-39.4043c-21.7285 0-39.4043 17.627-39.4043 39.4043s17.6758 39.4043 39.4043 39.4043Zm0-7.42188c-17.6758 0-31.9336-14.3066-31.9336-31.9824s14.2578-31.9824 31.9336-31.9824 31.9824 14.3066 31.9824 31.9824-14.3066 31.9824-31.9824 31.9824Zm3.61328-17.7734v-28.4668c0-2.24609-1.46484-3.75977-3.71094-3.75977-2.14844 0-3.61328 1.51367-3.61328 3.75977v28.4668c0 2.19727 1.46484 3.71094 3.61328 3.71094 2.24609 0 3.71094-1.51367 3.71094-3.71094Zm-17.8223-10.5957h28.418c2.19727 0 3.71094-1.46484 3.71094-3.61328 0-2.19727-1.51367-3.71094-3.71094-3.71094h-28.418c-2.24609 0-3.75977 1.51367-3.75977 3.71094 0 2.14844 1.51367 3.61328 3.75977 3.61328Z"/>
  </g>
  <g transform="matrix(0.2 0 0 0.2 281.506 1933)">
   <path d="m58.5449 14.5508c27.4902 0 49.8047-22.3145 49.8047-49.8047s-22.3145-49.8047-49.8047-49.8047-49.8047 22.3145-49.8047 49.8047 22.3145 49.8047 49.8047 49.8047Zm0-8.30078c-22.9492 0-41.5039-18.5547-41.5039-41.5039s18.5547-41.5039 41.5039-41.5039 41.5039 18.5547 41.5039 41.5039-18.5547 41.5039-41.5039 41.5039Zm4.05273-23.0957v-36.9141c0-2.49023-1.70898-4.19922-4.15039-4.19922-2.39258 0-4.05273 1.70898-4.05273 4.19922v36.9141c0 2.44141 1.66016 4.15039 4.05273 4.15039 2.44141 0 4.15039-1.66016 4.15039-4.15039Zm-22.5586-14.4043h36.9629c2.44141 0 4.15039-1.61133 4.15039-4.00391 0-2.44141-1.70898-4.15039-4.15039-4.15039h-36.9629c-2.49023 0-4.15039 1.70898-4.15039 4.15039 0 2.39258 1.66016 4.00391 4.15039 4.00391Z"/>
  </g>
  <g transform="matrix(0.2 0 0 0.2 304.924 1933)">
   <path d="m74.8535 28.3203c35.1074 0 63.623-28.4668 63.623-63.5742s-28.5156-63.623-63.623-63.623-63.5742 28.5156-63.5742 63.623 28.4668 63.5742 63.5742 63.5742Zm0-9.08203c-30.127 0-54.4922-24.3652-54.4922-54.4922s24.3652-54.4922 54.4922-54.4922 54.4922 24.3652 54.4922 54.4922-24.3652 54.4922-54.4922 54.4922Zm4.44336-30.3223v-48.4863c0-2.73438-1.85547-4.63867-4.54102-4.63867-2.58789 0-4.44336 1.9043-4.44336 4.63867v48.4863c0 2.68555 1.85547 4.58984 4.44336 4.58984 2.68555 0 4.54102-1.85547 4.54102-4.58984Zm-28.7109-19.7754h48.4863c2.68555 0 4.58984-1.80664 4.58984-4.39453 0-2.73438-1.85547-4.58984-4.58984-4.58984h-48.4863c-2.73438 0-4.58984 1.85547-4.58984 4.58984 0 2.58789 1.85547 4.39453 4.58984 4.39453Z"/>
  </g>
  <text style="stroke:none;fill:black;font-family:sans-serif;font-size:13;font-weight:bold;" transform="matrix(1 0 0 1 263 1953)">Design Variations</text>
  <text style="stroke:none;fill:black;font-family:sans-serif;font-size:13;" transform="matrix(1 0 0 1 263 1971)">Symbols are supported in up to nine weights and three scales.</text>
  <text style="stroke:none;fill:black;font-family:sans-serif;font-size:13;" transform="matrix(1 0 0 1 263 1989)">For optimal layout with text and other symbols, vertically align</text>
  <text style="stroke:none;fill:black;font-family:sans-serif;font-size:13;" transform="matrix(1 0 0 1 263 2007)">symbols with the adjacent text.</text>
  <line style="fill:none;stroke:#00AEEF;stroke-width:0.5;opacity:1.0;" x1="776" x2="776" y1="1919" y2="1933"/>
  <g transform="matrix(0.2 0 0 0.2 776 1933)">
   <path d="m16.5527 0.78125c2.58789 0 3.85742-0.976562 4.78516-3.71094l20.5566-57.5195h0.244141l20.6055 57.5195c0.927734 2.73438 2.19727 3.71094 4.73633 3.71094 2.58789 0 4.24805-1.5625 4.24805-4.00391 0-0.830078-0.146484-1.61133-0.537109-2.63672l-22.9004-60.9863c-1.12305-2.97852-3.125-4.49219-6.25-4.49219-3.02734 0-5.07812 1.46484-6.15234 4.44336l-22.9004 61.084c-0.390625 1.02539-0.537109 1.80664-0.537109 2.63672 0 2.44141 1.5625 3.95508 4.10156 3.95508Zm10.2051-20.9473h30.6641c2.00195 0 3.66211-1.66016 3.66211-3.66211 0-2.05078-1.66016-3.66211-3.66211-3.66211h-30.6641c-2.00195 0-3.66211 1.61133-3.66211 3.66211 0 2.00195 1.66016 3.66211 3.66211 3.66211Z"/>
  </g>
  <line style="fill:none;stroke:#00AEEF;stroke-width:0.5;opacity:1.0;" x1="792.836" x2="792.836" y1="1919" y2="1933"/>
  <text style="stroke:none;fill:black;font-family:sans-serif;font-size:13;font-weight:bold;" transform="matrix(1 0 0 1 776 1953)">Margins</text>
  <text style="stroke:none;fill:black;font-family:sans-serif;font-size:13;" transform="matrix(1 0 0 1 776 1971)">Leading and trailing margins on the left and right side of each symbol</text>
  <text style="stroke:none;fill:black;font-family:sans-serif;font-size:13;" transform="matrix(1 0 0 1 776 1989)">can be adjusted by modifying the x-location of the margin guidelines.</text>
  <text style="stroke:none;fill:black;font-family:sans-serif;font-size:13;" transform="matrix(1 0 0 1 776 2007)">Modifications are automatically applied proportionally to all</text>
  <text style="stroke:none;fill:black;font-family:sans-serif;font-size:13;" transform="matrix(1 0 0 1 776 2025)">scales and weights.</text>
  <g transform="matrix(0.2 0 0 0.2 1289 1933)">
   <path d="m14.209 13.1348 7.86133 7.86133c4.29688 4.39453 9.32617 4.10156 13.8672-1.02539l60.6934-68.2129-4.88281-4.88281-60.2539 67.6758c-1.80664 1.95312-3.4668 2.44141-5.81055 0.0976562l-5.17578-5.12695c-2.29492-2.29492-1.80664-3.95508 0.195312-5.81055l67.4805-62.1582-4.88281-4.83398-68.0664 62.5977c-4.98047 4.58984-5.32227 9.47266-1.02539 13.8184Zm44.873-97.4609c-2.05078 2.00195-2.24609 4.88281-1.07422 6.78711 1.12305 1.80664 3.4668 3.02734 6.5918 2.24609 5.85938-1.66016 12.5977-2.39258 18.8965 0.927734l-2.68555 7.12891c-1.61133 4.00391-0.732422 6.88477 1.70898 9.42383l10.2539 10.3027c2.34375 2.39258 4.54102 2.44141 7.08008 1.95312l4.44336-0.732422 2.58789 2.53906-0.195312 2.24609c-0.0976562 2.29492 0.537109 4.29688 2.7832 6.49414l3.36914 3.32031c2.29492 2.29492 5.51758 2.49023 7.8125 0.195312l12.9883-13.0371c2.29492-2.34375 2.14844-5.37109-0.195312-7.66602l-3.41797-3.41797c-2.19727-2.19727-4.05273-3.02734-6.34766-2.88086l-2.34375 0.244141-2.44141-2.44141 1.02539-4.6875c0.634766-2.73438-0.244141-4.98047-2.88086-7.61719l-11.2793-11.1816c-12.9395-12.8418-35.5957-11.0352-46.6797-0.146484Zm7.08008 2.05078c8.78906-6.39648 25.9766-5.66406 33.6914 1.95312l12.3047 12.207c1.02539 1.02539 1.2207 1.80664 0.927734 3.32031l-1.46484 6.64062 6.73828 6.68945 4.39453-0.244141c1.12305-0.0488281 1.51367 0.0488281 2.34375 0.878906l2.53906 2.49023-10.8398 10.8398-2.49023-2.49023c-0.830078-0.878906-0.976562-1.2207-0.927734-2.39258l0.292969-4.3457-6.68945-6.73828-6.83594 1.17188c-1.41602 0.292969-2.05078 0.195312-3.17383-0.878906l-8.93555-8.88672c-1.07422-1.02539-1.17188-1.70898-0.488281-3.36914l4.58984-11.4746c-6.10352-6.34766-17.041-7.51953-25.5859-4.58984-0.683594 0.244141-0.927734-0.390625-0.390625-0.78125Z"/>
  </g>
  <text style="stroke:none;fill:black;font-family:sans-serif;font-size:13;font-weight:bold;" transform="matrix(1 0 0 1 1289 1953)">Exporting</text>
  <text style="stroke:none;fill:black;font-family:sans-serif;font-size:13;" transform="matrix(1 0 0 1 1289 1971)">Symbols should be outlined when exporting to ensure the</text>
  <text style="stroke:none;fill:black;font-family:sans-serif;font-size:13;" transform="matrix(1 0 0 1 1289 1989)">design is preserved when submitting to Xcode.</text>
  <text id="template-version" style="stroke:none;fill:black;font-family:sans-serif;font-size:13;text-anchor:end;" transform="matrix(1 0 0 1 3036 1933)">Template v.6.0</text>
  <text style="stroke:none;fill:black;font-family:sans-serif;font-size:13;text-anchor:end;" transform="matrix(1 0 0 1 3036 1951)">Requires Xcode 16 or greater</text>
  <text id="descriptive-name" style="stroke:none;fill:black;font-family:sans-serif;font-size:13;text-anchor:end;" transform="matrix(1 0 0 1 3036 1969)">Generated from custom.text.on.path</text>
  <text style="stroke:none;fill:black;font-family:sans-serif;font-size:13;text-anchor:end;" transform="matrix(1 0 0 1 3036 1987)">Typeset at 100.0 points</text>
  <text style="stroke:none;fill:black;font-family:sans-serif;font-size:13;" transform="matrix(1 0 0 1 263 726)">Small</text>
  <text style="stroke:none;fill:black;font-family:sans-serif;font-size:13;" transform="matrix(1 0 0 1 263 1156)">Medium</text>
  <text style="stroke:none;fill:black;font-family:sans-serif;font-size:13;" transform="matrix(1 0 0 1 263 1586)">Large</text>
 </g>
 <g id="Guides">
  <g id="H-reference" style="fill:#27AAE1;stroke:none;" transform="matrix(1 0 0 1 339 696)">
   <path d="M0.993654 0L3.63775 0L29.3281-67.1323L30.0303-67.1323L30.0303-70.459L28.1226-70.459ZM11.6885-24.4799L46.9815-24.4799L46.2315-26.7285L12.4385-26.7285ZM55.1196 0L57.7637 0L30.6382-70.459L29.4326-70.459L29.4326-67.1323Z"/>
  </g>
  <line id="Baseline-S" style="fill:none;stroke:#27AAE1;opacity:1;stroke-width:0.5;" x1="263" x2="3036" y1="696" y2="696"/>
  <line id="Capline-S" style="fill:none;stroke:#27AAE1;opacity:1;stroke-width:0.5;" x1="263" x2="3036" y1="625.541" y2="625.541"/>
  <g id="H-reference" style="fill:#27AAE1;stroke:none;" transform="matrix(1 0 0 1 339 1126)">
   <path d="M0.993654 0L3.63775 0L29.3281-67.1323L30.0303-67.1323L30.0303-70.459L28.1226-70.459ZM11.6885-24.4799L46.9815-24.4799L46.2315-26.7285L12.4385-26.7285ZM55.1196 0L57.7637 0L30.6382-70.459L29.4326-70.459L29.4326-67.1323Z"/>
  </g>
  <line id="Baseline-M" style="fill:none;stroke:#27AAE1;opacity:1;stroke-width:0.5;" x1="263" x2="3036" y1="1126" y2="1126"/>
  <line id="Capline-M" style="fill:none;stroke:#27AAE1;opacity:1;stroke-width:0.5;" x1="263" x2="3036" y1="1055.54" y2="1055.54"/>
  <g id="H-reference" style="fill:#27AAE1;stroke:none;" transform="matrix(1 0 0 1 339 1556)">
   <path d="M0.993654 0L3.63775 0L29.3281-67.1323L30.0303-67.1323L30.0303-70.459L28.1226-70.459ZM11.6885-24.4799L46.9815-24.4799L46.2315-26.7285L12.4385-26.7285ZM55.1196 0L57.7637 0L30.6382-70.459L29.4326-70.459L29.4326-67.1323Z"/>
  </g>
  <line id="Baseline-L" style="fill:none;stroke:#27AAE1;opacity:1;stroke-width:0.5;" x1="263" x2="3036" y1="1556" y2="1556"/>
  <line id="Capline-L" style="fill:none;stroke:#27AAE1;opacity:1;stroke-width:0.5;" x1="263" x2="3036" y1="1485.54" y2="1485.54"/>
  <line id="right-margin-Black-S" style="fill:none;stroke:#00AEEF;stroke-width:0.5;opacity:1.0;" x1="2995.21" x2="2995.21" y1="600.785" y2="720.121"/>
  <line id="left-margin-Black-S" style="fill:none;stroke:#00AEEF;stroke-width:0.5;opacity:1.0;" x1="2871.59" x2="2871.59" y1="600.785" y2="720.121"/>
  <line id="right-margin-Regular-S" style="fill:none;stroke:#00AEEF;stroke-width:0.5;opacity:1.0;" x1="1509.5" x2="1509.5" y1="600.785" y2="720.121"/>
  <line id="left-margin-Regular-S" style="fill:none;stroke:#00AEEF;stroke-width:0.5;opacity:1.0;" x1="1390.19" x2="1390.19" y1="600.785" y2="720.121"/>
  <line id="right-margin-Ultralight-S" style="fill:none;stroke:#00AEEF;stroke-width:0.5;opacity:1.0;" x1="615.774" x2="615.774" y1="600.785" y2="720.121"/>
  <line id="left-margin-Ultralight-S" style="fill:none;stroke:#00AEEF;stroke-width:0.5;opacity:1.0;" x1="503.649" x2="503.649" y1="600.785" y2="720.121"/>
 </g>
 <g id="Symbols">
  <g id="Black-S" transform="matrix(1 0 0 1 2871.59 696)">
   <path class="monochrome-0 multicolor-0:tintColor hierarchical-0:secondary SFSymbolsPreviewWireframe" d="M99.9062-52.4795C108.242-52.4795 115-45.7218 115-37.3858C115-29.0497 108.242-22.292 99.9062-22.292C93.5272-22.292 88.075-26.25 85.8653-31.8436C84.569-31.9428 83.2591-31.9951 81.9375-31.9951C65.5687-31.9951 50.9893-24.3407 41.578-12.4175C42.5667-10.4093 43.125-8.1505 43.125-5.7608C43.125 2.5753 36.3673 9.333 28.0312 9.333C19.6952 9.333 12.9375 2.5753 12.9375-5.7608C12.9375-14.0968 19.6952-20.8545 28.0312-20.8545C29.482-20.8545 30.8841-20.6469 32.2118-20.2648C43.867-34.8598 61.8076-44.2139 81.9375-44.2139C83.4259-44.2139 84.9022-44.1613 86.365-44.0595C88.8283-49.0479 93.9662-52.4795 99.9062-52.4795ZM28.0312-9.3545C26.0465-9.3545 24.4375-7.7457 24.4375-5.7608C24.4375-3.7759 26.0465-2.167 28.0312-2.167C30.0161-2.167 31.625-3.7759 31.625-5.7608C31.625-7.7457 30.0161-9.3545 28.0312-9.3545ZM99.9062-40.9795C97.9213-40.9795 96.3125-39.3707 96.3125-37.3858C96.3125-35.4009 97.9213-33.792 99.9062-33.792C101.891-33.792 103.5-35.4009 103.5-37.3858C103.5-39.3707 101.891-40.9795 99.9062-40.9795Z"/>
   <path class="monochrome-1 multicolor-1:tintColor hierarchical-1:primary SFSymbolsPreviewWireframe" d="M31.9381-29.6606C30.4517-27.9397 28.5839-27.8387 26.7735-29.4025C22.9149-32.7352 19.0562-36.0679 15.1976-39.4006C14.4158-38.4954 13.634-37.5903 12.8522-36.6851C11.619-35.2571 10.0155-34.9728 8.63862-36.1619C7.26175-37.351 7.28788-38.9535 8.54314-40.4068C11.663-44.0189 14.7828-47.6311 17.9026-51.2432C19.1579-52.6966 20.7394-52.9556 22.1162-51.7665C23.4931-50.5771 23.445-48.9493 22.2117-47.5216C21.4299-46.6163 20.6482-45.7111 19.8664-44.8058C23.725-41.4731 27.5835-38.1404 31.4421-34.8077C33.2525-33.2443 33.4247-31.3816 31.9381-29.6606ZM44.7269-40.1987C39.6733-36.7857 34.6449-37.7604 31.2602-42.7724C27.8569-47.8119 28.7652-52.999 33.6096-56.2703C38.3841-59.4945 43.5246-58.5346 46.3246-54.3883C47.2483-53.0201 46.9758-51.7383 45.5518-50.7766C42.8806-48.9729 40.2095-47.1691 37.5383-45.3653C37.62-45.2444 39.3109-42.0238 42.1616-44.1779C43.4042-45.0172 44.043-45.9975 44.4814-47.6961C44.7235-48.6319 45.0478-49.1152 45.7458-49.5864C46.8487-50.3313 48.3207-50.2885 49.1501-49.06C49.4425-48.6273 49.5998-48.1236 49.6219-47.5492C49.7484-45.1342 47.8682-42.3198 44.7269-40.1987ZM35.5292-48.5212C37.13-49.6022 38.7308-50.6832 40.3316-51.7642C39.3007-53.0803 37.7341-53.3233 36.3938-52.4183C35.0954-51.5414 34.7452-49.9228 35.5292-48.5212ZM55.8618-46.4072C54.1316-45.8449 52.5863-46.5116 52.076-48.0816C51.8-48.9306 51.8584-49.6226 52.2773-50.7861C52.9046-52.5253 53.5319-54.2644 54.1592-56.0036C52.5957-57.0895 51.0322-58.1755 49.4687-59.2614C48.7798-59.7459 48.3471-60.3138 48.087-61.1149C47.5453-62.781 48.4739-64.4468 50.2521-65.025C51.6778-65.4885 52.5495-65.205 54.0158-63.9635C55.1752-62.9765 56.3346-61.9894 57.494-61.0024C57.5366-61.0163 57.5793-61.0301 57.6219-61.044C57.9792-62.5241 58.3364-64.0042 58.6937-65.4843C59.1336-67.2923 59.6401-68.077 60.9057-68.4884C62.748-69.0874 64.2876-68.3834 64.8396-66.6852C65.1159-65.8361 65.0679-65.112 64.6329-63.9432C64.0328-62.2838 63.4326-60.6244 62.8325-58.965C64.396-57.8791 65.9596-56.7931 67.5231-55.7072C68.2545-55.201 68.703-54.6383 68.9425-53.9014C69.5416-52.0589 68.534-50.5268 66.7558-49.9489C65.3939-49.5062 64.6513-49.9377 63.4544-50.8951C62.1094-51.9811 60.7643-53.0672 59.4193-54.1532C59.3766-54.1393 59.3338-54.1255 59.2911-54.1116C58.8762-52.5183 58.4614-50.925 58.0465-49.3317C57.5362-47.3591 57.0633-46.7979 55.8618-46.4072ZM72.5443-56.8023C72.3557-59.5923 72.1671-62.3824 71.9785-65.1724C71.8384-65.1629 71.6983-65.1535 71.5582-65.144C70.0793-65.044 69.0207-65.9686 68.9183-67.4812C68.816-68.9939 69.7406-70.0526 71.2198-70.1526C71.3598-70.1621 71.4998-70.1715 71.6398-70.181C71.6175-70.5115 71.5951-70.8421 71.5728-71.1726C71.4204-73.4248 72.5756-74.8199 74.7773-74.9687C76.9793-75.1176 78.3115-73.8907 78.4639-71.6385C78.4862-71.308 78.5086-70.9774 78.5309-70.6469C78.9343-70.6742 79.3376-70.7014 79.741-70.7287C81.2199-70.8287 82.2799-69.8873 82.3808-68.3914C82.482-66.8956 81.5586-65.8201 80.0797-65.7201C79.6763-65.6928 79.273-65.6656 78.8696-65.6383C79.0237-63.3581 79.1778-61.0779 79.3319-58.7977C79.4035-57.7389 79.7815-57.393 80.4428-57.3532C80.5784-57.3455 80.714-57.3378 80.8496-57.3301C82.3075-57.2429 83.2246-56.6633 83.3324-55.0667C83.4667-53.0834 81.2153-51.918 78.7112-51.7487C78.6608-51.7453 78.6103-51.742 78.5599-51.7386C74.8285-51.4862 72.7864-53.2224 72.5443-56.8023Z"/>
  </g>
  <g id="Regular-S" transform="matrix(1 0 0 1 1390.19 696)">
   <path class="monochrome-0 multicolor-0:tintColor hierarchical-0:secondary SFSymbolsPreviewWireframe" d="M98.4687-55.7139C105.415-55.7139 111.047-50.0823 111.047-43.1357C111.047-36.1892 105.415-30.5576 98.4687-30.5576C92.4085-30.5576 87.3497-34.8437 86.1574-40.55C85.2357-40.5971 84.3082-40.6201 83.375-40.6201C64.8499-40.6201 48.4995-31.333 38.7087-17.1653C40.7793-14.9234 42.0469-11.9285 42.0469-8.6357C42.0469-1.6892 36.4153 3.9424 29.4687 3.9424C22.522 3.9424 16.8906-1.6892 16.8906-8.6357C16.8906-15.5823 22.522-21.2139 29.4687-21.2139C30.7843-21.2139 32.0531-21.0129 33.2451-20.6383C44.1867-36.6081 62.5542-47.0889 83.375-47.0889C84.4221-47.0889 85.4631-47.0607 86.497-47.0075C88.13-52.0597 92.8728-55.7139 98.4687-55.7139ZM29.4687-14.7451C26.0946-14.7451 23.3594-12.0098 23.3594-8.6357C23.3594-5.2616 26.0946-2.5264 29.4687-2.5264C32.8428-2.5264 35.5781-5.2616 35.5781-8.6357C35.5781-12.0098 32.8428-14.7451 29.4687-14.7451ZM98.4687-49.2451C95.0946-49.2451 92.3594-46.5098 92.3594-43.1357C92.3594-39.7616 95.0946-37.0264 98.4687-37.0264C101.843-37.0264 104.578-39.7616 104.578-43.1357C104.578-46.5098 101.843-49.2451 98.4687-49.2451Z"/>
   <path class="monochrome-1 multicolor-1:tintColor hierarchical-1:primary SFSymbolsPreviewWireframe" d="M34.4347-29.5387C33.1965-28.027 31.5822-27.8905 29.9923-29.1929C25.744-32.673 21.4957-36.153 17.2474-39.6331C16.3471-38.5342 15.4469-37.4353 14.5466-36.3364C13.5005-35.0593 12.0922-34.7755 10.8672-35.7789C9.64229-36.7826 9.62179-38.193 10.6893-39.496C13.7958-43.2882 16.9022-47.0805 20.0087-50.8727C21.0656-52.1627 22.4525-52.4203 23.6774-51.4169C24.9024-50.4132 24.9015-48.9769 23.866-47.7127C22.9622-46.6094 22.0583-45.5061 21.1545-44.4028C25.4028-40.9227 29.6511-37.4426 33.8994-33.9625C35.489-32.6601 35.673-31.0504 34.4347-29.5387ZM46.4534-39.8709C41.6613-36.4649 36.7597-37.342 33.3051-42.2025C29.86-47.0495 30.567-52.1609 35.1256-55.4011C39.5744-58.5631 44.5875-57.7035 47.4568-53.6667C48.3351-52.4309 48.1229-51.2467 46.8596-50.3488C44.1501-48.423 41.4406-46.4971 38.7311-44.5712C38.7962-44.4797 40.9345-40.8547 44.045-43.3468C45.377-44.2932 45.9942-45.3728 46.2981-47.2424C46.4646-48.0839 46.7458-48.5318 47.3498-48.9611C48.3385-49.6637 49.6251-49.6275 50.3864-48.5566C50.6497-48.186 50.8035-47.7369 50.8375-47.224C51.0979-44.7636 49.433-41.9886 46.4534-39.8709ZM36.8285-47.3936C38.6409-48.6819 40.4533-49.9702 42.2657-51.2585C41.0317-52.82 39.2052-53.0926 37.6812-52.0091C36.1707-50.9356 35.8395-49.0467 36.8285-47.3936ZM56.7502-45.9923C55.273-45.4705 53.8991-46.0214 53.4221-47.3715C53.1751-48.0704 53.2125-48.673 53.5308-49.643C54.1684-51.6311 54.8059-53.6191 55.4435-55.6072C53.6783-56.794 51.913-57.9808 50.1478-59.1676C49.544-59.5617 49.157-60.0503 48.9213-60.7174C48.4161-62.1469 49.1895-63.5993 50.7141-64.138C51.9055-64.5589 52.6605-64.3432 53.9037-63.3532C55.2976-62.2734 56.6914-61.1937 58.0853-60.1139C58.1224-60.127 58.1595-60.1401 58.1966-60.1532C58.5888-61.858 58.9811-63.5629 59.3733-65.2677C59.7083-66.7975 60.149-67.4714 61.2133-67.8474C62.7857-68.4029 64.1493-67.8306 64.6599-66.3852C64.9123-65.6704 64.9023-65.0415 64.5682-64.0659C63.9471-62.1492 63.326-60.2324 62.7049-58.3157C64.472-57.1236 66.239-55.9316 68.0061-54.7395C68.6372-54.3192 69.0342-53.8521 69.2587-53.2168C69.8087-51.6601 68.9804-50.3135 67.4555-49.7747C66.3119-49.3708 65.6454-49.689 64.6194-50.4699C63.0818-51.6359 61.5443-52.8019 60.0067-53.9679C59.9696-53.9548 59.9325-53.9417 59.8954-53.9286C59.4537-52.111 59.0121-50.2934 58.5704-48.4758C58.1785-46.8543 57.7665-46.3514 56.7502-45.9923ZM72.6061-56.3383C72.3041-59.3272 72.0022-62.3162 71.7002-65.3051C71.4823-65.2831 71.2643-65.261 71.0464-65.239C69.7225-65.1053 68.7628-65.8888 68.6291-67.2128C68.4937-68.5537 69.2789-69.4965 70.6028-69.6303C70.8207-69.6523 71.0387-69.6743 71.2566-69.6963C71.2075-70.1823 71.1585-70.6684 71.1094-71.1544C70.9145-73.0819 71.8871-74.3484 73.7811-74.5398C75.6582-74.7294 76.8646-73.6829 77.0592-71.7555C77.1083-71.2694 77.1573-70.7834 77.2064-70.2973C77.6869-70.3459 78.1674-70.3944 78.6479-70.443C79.9719-70.5767 80.9315-69.7932 81.0652-68.4692C81.1992-67.1451 80.4155-66.1855 79.0915-66.0517C78.611-66.0032 78.1305-65.9546 77.65-65.9061C77.908-63.3529 78.166-60.7998 78.424-58.2466C78.539-57.1069 78.9702-56.6933 79.8166-56.6942C79.9413-56.6898 80.066-56.6855 80.1907-56.6811C81.5298-56.6641 82.3601-56.1553 82.499-54.781C82.6732-53.0547 80.8841-51.9936 78.5881-51.7616C78.5378-51.7565 78.4875-51.7515 78.4372-51.7464C74.9173-51.3907 72.9479-52.9527 72.6061-56.3383Z"/>
  </g>
  <g id="Ultralight-S" transform="matrix(1 0 0 1 503.649 696)">
   <path class="monochrome-0 multicolor-0:tintColor hierarchical-0:secondary SFSymbolsPreviewWireframe" d="M92.7188-53.4846C98.4349-53.4846 103.068-48.8519 103.068-43.1357C103.068-37.4196 98.4349-32.7869 92.7188-32.7869C87.1654-32.7869 82.6347-37.1595 82.3811-42.65C80.813-42.7808 79.2269-42.8494 77.625-42.8494C57.2269-42.8494 39.3609-32.0337 29.4294-15.8289C32.2243-13.976 34.0676-10.8032 34.0676-7.1983C34.0676-1.4821 29.4349 3.1506 23.7188 3.1506C18.0026 3.1506 13.3699-1.4821 13.3699-7.1983C13.3699-12.9144 18.0026-17.5471 23.7188-17.5471C25.1084-17.5471 26.4332-17.2716 27.6438-16.775C37.9151-33.6156 56.4556-44.8596 77.625-44.8596C79.2598-44.8596 80.8786-44.7894 82.4794-44.6575C83.2151-49.6521 87.5195-53.4846 92.7188-53.4846ZM23.7188-15.5369C19.1141-15.5369 15.3801-11.8029 15.3801-7.1983C15.3801-2.5936 19.1141 1.1404 23.7188 1.1404C28.3234 1.1404 32.0574-2.5936 32.0574-7.1983C32.0574-11.8029 28.3234-15.5369 23.7188-15.5369ZM92.7188-51.4744C88.1141-51.4744 84.3801-47.7404 84.3801-43.1357C84.3801-38.5311 88.1141-34.7971 92.7188-34.7971C97.3234-34.7971 101.057-38.5311 101.057-43.1357C101.057-47.7404 97.3234-51.4744 92.7188-51.4744Z"/>
   <path class="monochrome-1 multicolor-1:tintColor hierarchical-1:primary SFSymbolsPreviewWireframe" d="M31.9819-33.3977C31.4956-32.8839 30.8526-32.8662 30.3143-33.3756C25.1673-38.2466 20.0204-43.1176 14.8734-47.9886C13.2485-46.2716 11.6235-44.5546 9.99861-42.8376C9.54702-42.3604 8.91627-42.3311 8.4758-42.748C8.0231-43.1764 8.02985-43.7962 8.48144-44.2734C12.2601-48.2661 16.0388-52.2589 19.8175-56.2516C20.2806-56.741 20.8876-56.7697 21.3403-56.3413C21.7808-55.9244 21.7978-55.3052 21.3346-54.8158C19.7097-53.0988 18.0847-51.3818 16.4598-49.6648C21.6067-44.7938 26.7537-39.9229 31.9006-35.0519C32.439-34.5424 32.4567-33.8994 31.9819-33.3977ZM42.6856-41.5725C38.471-38.8144 34.0932-39.9358 31.0123-44.6437C27.9683-49.2953 28.6063-53.9809 32.5672-56.5729C36.3167-59.0266 40.7552-57.9047 43.421-53.8311C43.8822-53.1263 43.7502-52.4359 43.0595-51.9839C39.7658-49.8285 36.4721-47.6731 33.1784-45.5177C35.4291-42.0783 38.6132-41.2428 41.531-43.1522C43.5749-44.4898 44.3936-46.2536 44.1529-48.7133C44.1517-49.1151 44.2801-49.3804 44.5902-49.5833C45.0836-49.9061 45.6248-49.8174 45.9569-49.31C46.0583-49.1549 46.1403-48.9066 46.1941-48.6398C46.7277-46.0094 45.4202-43.362 42.6856-41.5725ZM32.2239-47.0069C35.2404-48.9809 38.2569-50.955 41.2734-52.929C39.3032-55.8473 36.2309-56.6351 33.6232-54.9286C31.0014-53.2129 30.4419-50.0685 32.2239-47.0069ZM50.3544-46.0715C49.7841-45.8653 49.2188-46.0908 49.0298-46.6135C48.9553-46.8195 48.9384-47.0642 49.0224-47.3274C49.8819-50.2835 50.7415-53.2397 51.601-56.1958C49.093-57.8802 46.5849-59.5646 44.0769-61.249C43.8382-61.4135 43.6788-61.6066 43.5929-61.8442C43.4038-62.367 43.7099-62.9076 44.296-63.1196C44.6604-63.2514 44.928-63.2049 45.2916-62.9423C47.5945-61.3628 49.8974-59.7834 52.2003-58.2039C52.2162-58.2096 52.232-58.2154 52.2479-58.2211C52.9923-60.8848 53.7366-63.5484 54.481-66.2121C54.6027-66.6681 54.783-66.9125 55.1316-67.0385C55.7177-67.2505 56.3146-67.0365 56.5037-66.5137C56.5839-66.2919 56.5849-66.0415 56.501-65.7783C55.6344-62.8913 54.7677-60.0042 53.9011-57.1172C56.4373-55.3713 58.9736-53.6255 61.5098-51.8796C61.7542-51.6993 61.892-51.5162 61.9665-51.3103C62.1556-50.7875 61.8711-50.2368 61.285-50.0248C60.9523-49.9045 60.6213-49.9281 60.3223-50.1603C57.984-51.8046 55.6458-53.4489 53.3075-55.0932C53.2916-55.0875 53.2758-55.0817 53.2599-55.076C52.5072-52.3198 51.7545-49.5635 51.0018-46.8073C50.9048-46.4318 50.7029-46.1976 50.3544-46.0715ZM64.2566-54.9786C63.6269-58.8301 62.9973-62.6815 62.3676-66.533C61.7857-66.4379 61.2039-66.3427 60.622-66.2476C59.9736-66.1416 59.5701-66.417 59.475-66.9989C59.3799-67.5807 59.6746-67.9703 60.323-68.0763C60.9049-68.1714 61.4867-68.2666 62.0686-68.3617C61.882-69.5033 61.6953-70.6449 61.5087-71.7865C61.3918-72.5013 61.7646-73.0402 62.413-73.1462C63.0614-73.2522 63.5863-72.8601 63.7032-72.1452C63.8898-71.0037 64.0765-69.8621 64.2631-68.7205C65.1165-68.86 65.97-68.9996 66.8234-69.1391C67.4717-69.2451 67.8919-68.9724 67.987-68.3905C68.0821-67.8086 67.7707-67.4163 67.1224-67.3103C66.269-67.1708 65.4155-67.0312 64.5621-66.8917C65.1682-63.1843 65.7744-59.477 66.3805-55.7696C66.6577-54.0739 67.3785-53.4236 68.9688-53.6153C69.1304-53.636 69.292-53.6568 69.4536-53.6775C70.1766-53.7445 70.5747-53.5023 70.6617-52.9703C70.7704-52.3053 70.4478-51.8771 69.2674-51.6841C69.1178-51.6596 68.9681-51.6352 68.8185-51.6107C66.1918-51.1813 64.7024-52.2521 64.2566-54.9786Z"/>
  </g>
 </g>
</svg>
