<?xml version="1.0" encoding="UTF-8"?>
<!--Generator: Apple Native CoreSVG 341-->
<!DOCTYPE svg
PUBLIC "-//W3C//DTD SVG 1.1//EN"
       "http://www.w3.org/Graphics/SVG/1.1/DTD/svg11.dtd">
<svg version="1.1" xmlns="http://www.w3.org/2000/svg" xmlns:xlink="http://www.w3.org/1999/xlink" viewBox="0 0 3300 2200">
 <!--glyph: "", point size: 100.0, font version: "20.0d10e1", template writer version: "138.0.0"-->
 <style>.monochrome-0 {-sfsymbols-motion-group:0;-sfsymbols-layer-tags:-4c02d103c2744cec}

.multicolor-0:tintColor {-sfsymbols-motion-group:0;-sfsymbols-layer-tags:-4c02d103c2744cec}

.hierarchical-0:primary {-sfsymbols-motion-group:0;-sfsymbols-layer-tags:-4c02d103c2744cec}

.SFSymbolsPreviewWireframe {fill:none;opacity:1.0;stroke:black;stroke-width:0.5}
</style>
 <g id="Notes">
  <rect height="2200" id="artboard" style="fill:white;opacity:1" width="3300" x="0" y="0"/>
  <line style="fill:none;stroke:black;opacity:1;stroke-width:0.5;" x1="263" x2="3036" y1="292" y2="292"/>
  <text style="stroke:none;fill:black;font-family:sans-serif;font-size:13;font-weight:bold;" transform="matrix(1 0 0 1 263 322)">Weight/Scale Variations</text>
  <text style="stroke:none;fill:black;font-family:sans-serif;font-size:13;text-anchor:middle;" transform="matrix(1 0 0 1 559.711 322)">Ultralight</text>
  <text style="stroke:none;fill:black;font-family:sans-serif;font-size:13;text-anchor:middle;" transform="matrix(1 0 0 1 856.422 322)">Thin</text>
  <text style="stroke:none;fill:black;font-family:sans-serif;font-size:13;text-anchor:middle;" transform="matrix(1 0 0 1 1153.13 322)">Light</text>
  <text style="stroke:none;fill:black;font-family:sans-serif;font-size:13;text-anchor:middle;" transform="matrix(1 0 0 1 1449.84 322)">Regular</text>
  <text style="stroke:none;fill:black;font-family:sans-serif;font-size:13;text-anchor:middle;" transform="matrix(1 0 0 1 1746.56 322)">Medium</text>
  <text style="stroke:none;fill:black;font-family:sans-serif;font-size:13;text-anchor:middle;" transform="matrix(1 0 0 1 2043.27 322)">Semibold</text>
  <text style="stroke:none;fill:black;font-family:sans-serif;font-size:13;text-anchor:middle;" transform="matrix(1 0 0 1 2339.98 322)">Bold</text>
  <text style="stroke:none;fill:black;font-family:sans-serif;font-size:13;text-anchor:middle;" transform="matrix(1 0 0 1 2636.69 322)">Heavy</text>
  <text style="stroke:none;fill:black;font-family:sans-serif;font-size:13;text-anchor:middle;" transform="matrix(1 0 0 1 2933.4 322)">Black</text>
  <line style="fill:none;stroke:black;opacity:1;stroke-width:0.5;" x1="263" x2="3036" y1="1903" y2="1903"/>
  <g transform="matrix(0.2 0 0 0.2 263 1933)">
   <path d="m46.2402 4.15039c21.7773 0 39.4531-17.627 39.4531-39.4043s-17.6758-39.4043-39.4531-39.4043c-21.7285 0-39.4043 17.627-39.4043 39.4043s17.6758 39.4043 39.4043 39.4043Zm0-7.42188c-17.6758 0-31.9336-14.3066-31.9336-31.9824s14.2578-31.9824 31.9336-31.9824 31.9824 14.3066 31.9824 31.9824-14.3066 31.9824-31.9824 31.9824Zm-17.9688-31.9824c0 2.14844 1.51367 3.61328 3.75977 3.61328h10.498v10.5957c0 2.19727 1.46484 3.71094 3.61328 3.71094 2.24609 0 3.71094-1.51367 3.71094-3.71094v-10.5957h10.5957c2.19727 0 3.71094-1.46484 3.71094-3.61328 0-2.19727-1.51367-3.71094-3.71094-3.71094h-10.5957v-10.5469c0-2.24609-1.46484-3.75977-3.71094-3.75977-2.14844 0-3.61328 1.51367-3.61328 3.75977v10.5469h-10.498c-2.24609 0-3.75977 1.51367-3.75977 3.71094Z"/>
  </g>
  <g transform="matrix(0.2 0 0 0.2 281.506 1933)">
   <path d="m58.5449 14.5508c27.4902 0 49.8047-22.3145 49.8047-49.8047s-22.3145-49.8047-49.8047-49.8047-49.8047 22.3145-49.8047 49.8047 22.3145 49.8047 49.8047 49.8047Zm0-8.30078c-22.9492 0-41.5039-18.5547-41.5039-41.5039s18.5547-41.5039 41.5039-41.5039 41.5039 18.5547 41.5039 41.5039-18.5547 41.5039-41.5039 41.5039Zm-22.6562-41.5039c0 2.39258 1.66016 4.00391 4.15039 4.00391h14.3555v14.4043c0 2.44141 1.66016 4.15039 4.05273 4.15039 2.44141 0 4.15039-1.66016 4.15039-4.15039v-14.4043h14.4043c2.44141 0 4.15039-1.61133 4.15039-4.00391 0-2.44141-1.70898-4.15039-4.15039-4.15039h-14.4043v-14.3555c0-2.49023-1.70898-4.19922-4.15039-4.19922-2.39258 0-4.05273 1.70898-4.05273 4.19922v14.3555h-14.3555c-2.49023 0-4.15039 1.70898-4.15039 4.15039Z"/>
  </g>
  <g transform="matrix(0.2 0 0 0.2 304.924 1933)">
   <path d="m74.8535 28.3203c35.1074 0 63.623-28.4668 63.623-63.5742s-28.5156-63.623-63.623-63.623-63.5742 28.5156-63.5742 63.623 28.4668 63.5742 63.5742 63.5742Zm0-9.08203c-30.127 0-54.4922-24.3652-54.4922-54.4922s24.3652-54.4922 54.4922-54.4922 54.4922 24.3652 54.4922 54.4922-24.3652 54.4922-54.4922 54.4922Zm-28.8574-54.4922c0 2.58789 1.85547 4.39453 4.58984 4.39453h19.7266v19.7754c0 2.68555 1.85547 4.58984 4.44336 4.58984 2.68555 0 4.54102-1.85547 4.54102-4.58984v-19.7754h19.7754c2.68555 0 4.58984-1.80664 4.58984-4.39453 0-2.73438-1.85547-4.58984-4.58984-4.58984h-19.7754v-19.7266c0-2.73438-1.85547-4.63867-4.54102-4.63867-2.58789 0-4.44336 1.9043-4.44336 4.63867v19.7266h-19.7266c-2.73438 0-4.58984 1.85547-4.58984 4.58984Z"/>
  </g>
  <text style="stroke:none;fill:black;font-family:sans-serif;font-size:13;font-weight:bold;" transform="matrix(1 0 0 1 263 1953)">Design Variations</text>
  <text style="stroke:none;fill:black;font-family:sans-serif;font-size:13;" transform="matrix(1 0 0 1 263 1971)">Symbols are supported in up to nine weights and three scales.</text>
  <text style="stroke:none;fill:black;font-family:sans-serif;font-size:13;" transform="matrix(1 0 0 1 263 1989)">For optimal layout with text and other symbols, vertically align</text>
  <text style="stroke:none;fill:black;font-family:sans-serif;font-size:13;" transform="matrix(1 0 0 1 263 2007)">symbols with the adjacent text.</text>
  <line style="fill:none;stroke:#00AEEF;stroke-width:0.5;opacity:1.0;" x1="776" x2="776" y1="1919" y2="1933"/>
  <g transform="matrix(0.2 0 0 0.2 776 1933)">
   <path d="m16.5527 0.78125c2.58789 0 3.85742-0.976562 4.78516-3.71094l6.29883-17.2363h28.8086l6.29883 17.2363c0.927734 2.73438 2.19727 3.71094 4.73633 3.71094 2.58789 0 4.24805-1.5625 4.24805-4.00391 0-0.830078-0.146484-1.61133-0.537109-2.63672l-22.9004-60.9863c-1.12305-2.97852-3.125-4.49219-6.25-4.49219-3.02734 0-5.07812 1.46484-6.15234 4.44336l-22.9004 61.084c-0.390625 1.02539-0.537109 1.80664-0.537109 2.63672 0 2.44141 1.5625 3.95508 4.10156 3.95508Zm13.4766-28.3691 11.8652-32.8613h0.244141l11.8652 32.8613Z"/>
  </g>
  <line style="fill:none;stroke:#00AEEF;stroke-width:0.5;opacity:1.0;" x1="792.836" x2="792.836" y1="1919" y2="1933"/>
  <text style="stroke:none;fill:black;font-family:sans-serif;font-size:13;font-weight:bold;" transform="matrix(1 0 0 1 776 1953)">Margins</text>
  <text style="stroke:none;fill:black;font-family:sans-serif;font-size:13;" transform="matrix(1 0 0 1 776 1971)">Leading and trailing margins on the left and right side of each symbol</text>
  <text style="stroke:none;fill:black;font-family:sans-serif;font-size:13;" transform="matrix(1 0 0 1 776 1989)">can be adjusted by modifying the x-location of the margin guidelines.</text>
  <text style="stroke:none;fill:black;font-family:sans-serif;font-size:13;" transform="matrix(1 0 0 1 776 2007)">Modifications are automatically applied proportionally to all</text>
  <text style="stroke:none;fill:black;font-family:sans-serif;font-size:13;" transform="matrix(1 0 0 1 776 2025)">scales and weights.</text>
  <g transform="matrix(0.2 0 0 0.2 1289 1933)">
   <path d="m14.209 9.32617 8.49609 8.54492c4.29688 4.3457 9.22852 4.05273 13.8672-1.07422l53.4668-58.9355-4.83398-4.88281-53.0762 58.3984c-1.75781 2.00195-3.41797 2.49023-5.76172 0.146484l-5.85938-5.81055c-2.34375-2.29492-1.80664-4.00391 0.195312-5.81055l57.373-54.0039-4.88281-4.83398-57.959 54.4434c-4.93164 4.58984-5.32227 9.47266-1.02539 13.8184Zm32.0801-90.9668c-2.09961 2.05078-2.24609 4.93164-1.07422 6.88477 1.17188 1.80664 3.4668 2.97852 6.68945 2.14844 7.32422-1.70898 14.9414-2.00195 22.0703 2.68555l-2.92969 7.27539c-1.70898 4.15039-0.830078 7.08008 1.85547 9.81445l11.4746 11.5723c2.44141 2.44141 4.49219 2.53906 7.32422 2.05078l5.32227-0.976562 3.32031 3.36914-0.195312 2.7832c-0.195312 2.49023 0.439453 4.39453 2.88086 6.78711l3.80859 3.71094c2.39258 2.39258 5.46875 2.53906 7.8125 0.195312l14.5508-14.5996c2.34375-2.34375 2.24609-5.32227-0.146484-7.71484l-3.85742-3.80859c-2.39258-2.39258-4.24805-3.17383-6.64062-2.97852l-2.88086 0.244141-3.22266-3.17383 1.2207-5.61523c0.634766-2.83203-0.146484-5.0293-3.07617-7.95898l-10.9863-10.9375c-16.6992-16.6016-38.8672-16.2109-53.3203-1.75781Zm7.4707 1.85547c12.1582-8.88672 28.6133-7.37305 39.7461 3.75977l12.1582 12.0605c1.17188 1.17188 1.36719 2.09961 1.02539 3.80859l-1.61133 7.42188 7.51953 7.42188 4.93164-0.292969c1.26953-0.0488281 1.66016 0.0488281 2.63672 1.02539l2.88086 2.88086-12.207 12.207-2.88086-2.88086c-0.976562-0.976562-1.12305-1.36719-1.07422-2.68555l0.341797-4.88281-7.4707-7.42188-7.61719 1.26953c-1.61133 0.341797-2.34375 0.195312-3.56445-0.976562l-10.0098-10.0098c-1.26953-1.17188-1.41602-2.00195-0.634766-3.85742l4.39453-10.4492c-7.8125-7.27539-17.9688-10.4004-28.125-7.42188-0.78125 0.195312-1.07422-0.439453-0.439453-0.976562Z"/>
  </g>
  <text style="stroke:none;fill:black;font-family:sans-serif;font-size:13;font-weight:bold;" transform="matrix(1 0 0 1 1289 1953)">Exporting</text>
  <text style="stroke:none;fill:black;font-family:sans-serif;font-size:13;" transform="matrix(1 0 0 1 1289 1971)">Symbols should be outlined when exporting to ensure the</text>
  <text style="stroke:none;fill:black;font-family:sans-serif;font-size:13;" transform="matrix(1 0 0 1 1289 1989)">design is preserved when submitting to Xcode.</text>
  <text id="template-version" style="stroke:none;fill:black;font-family:sans-serif;font-size:13;text-anchor:end;" transform="matrix(1 0 0 1 3036 1933)">Template v.5.0</text>
  <text style="stroke:none;fill:black;font-family:sans-serif;font-size:13;text-anchor:end;" transform="matrix(1 0 0 1 3036 1951)">Requires Xcode 15 or greater</text>
  <text id="descriptive-name" style="stroke:none;fill:black;font-family:sans-serif;font-size:13;text-anchor:end;" transform="matrix(1 0 0 1 3036 1969)">Generated from custom.text.case.lower</text>
  <text style="stroke:none;fill:black;font-family:sans-serif;font-size:13;text-anchor:end;" transform="matrix(1 0 0 1 3036 1987)">Typeset at 100.0 points</text>
  <text style="stroke:none;fill:black;font-family:sans-serif;font-size:13;" transform="matrix(1 0 0 1 263 726)">Small</text>
  <text style="stroke:none;fill:black;font-family:sans-serif;font-size:13;" transform="matrix(1 0 0 1 263 1156)">Medium</text>
  <text style="stroke:none;fill:black;font-family:sans-serif;font-size:13;" transform="matrix(1 0 0 1 263 1586)">Large</text>
 </g>
 <g id="Guides">
  <g id="H-reference" style="fill:#27AAE1;stroke:none;" transform="matrix(1 0 0 1 339 696)">
   <path d="M0.993654 0L3.63775 0L29.3281-67.1323L30.0303-67.1323L30.0303-70.459L28.1226-70.459ZM11.6885-24.4799L46.9815-24.4799L46.2315-26.7285L12.4385-26.7285ZM55.1196 0L57.7637 0L30.6382-70.459L29.4326-70.459L29.4326-67.1323Z"/>
  </g>
  <line id="Baseline-S" style="fill:none;stroke:#27AAE1;opacity:1;stroke-width:0.5;" x1="263" x2="3036" y1="696" y2="696"/>
  <line id="Capline-S" style="fill:none;stroke:#27AAE1;opacity:1;stroke-width:0.5;" x1="263" x2="3036" y1="625.541" y2="625.541"/>
  <g id="H-reference" style="fill:#27AAE1;stroke:none;" transform="matrix(1 0 0 1 339 1126)">
   <path d="M0.993654 0L3.63775 0L29.3281-67.1323L30.0303-67.1323L30.0303-70.459L28.1226-70.459ZM11.6885-24.4799L46.9815-24.4799L46.2315-26.7285L12.4385-26.7285ZM55.1196 0L57.7637 0L30.6382-70.459L29.4326-70.459L29.4326-67.1323Z"/>
  </g>
  <line id="Baseline-M" style="fill:none;stroke:#27AAE1;opacity:1;stroke-width:0.5;" x1="263" x2="3036" y1="1126" y2="1126"/>
  <line id="Capline-M" style="fill:none;stroke:#27AAE1;opacity:1;stroke-width:0.5;" x1="263" x2="3036" y1="1055.54" y2="1055.54"/>
  <g id="H-reference" style="fill:#27AAE1;stroke:none;" transform="matrix(1 0 0 1 339 1556)">
   <path d="M0.993654 0L3.63775 0L29.3281-67.1323L30.0303-67.1323L30.0303-70.459L28.1226-70.459ZM11.6885-24.4799L46.9815-24.4799L46.2315-26.7285L12.4385-26.7285ZM55.1196 0L57.7637 0L30.6382-70.459L29.4326-70.459L29.4326-67.1323Z"/>
  </g>
  <line id="Baseline-L" style="fill:none;stroke:#27AAE1;opacity:1;stroke-width:0.5;" x1="263" x2="3036" y1="1556" y2="1556"/>
  <line id="Capline-L" style="fill:none;stroke:#27AAE1;opacity:1;stroke-width:0.5;" x1="263" x2="3036" y1="1485.54" y2="1485.54"/>
  <line id="right-margin-Black-S" style="fill:none;stroke:#00AEEF;stroke-width:0.5;opacity:1.0;" x1="2996.65" x2="2996.65" y1="600.785" y2="720.121"/>
  <line id="left-margin-Black-S" style="fill:none;stroke:#00AEEF;stroke-width:0.5;opacity:1.0;" x1="2870.15" x2="2870.15" y1="600.785" y2="720.121"/>
  <line id="right-margin-Regular-S" style="fill:none;stroke:#00AEEF;stroke-width:0.5;opacity:1.0;" x1="1503.75" x2="1503.75" y1="600.785" y2="720.121"/>
  <line id="left-margin-Regular-S" style="fill:none;stroke:#00AEEF;stroke-width:0.5;opacity:1.0;" x1="1395.94" x2="1395.94" y1="600.785" y2="720.121"/>
  <line id="right-margin-Ultralight-S" style="fill:none;stroke:#00AEEF;stroke-width:0.5;opacity:1.0;" x1="611.461" x2="611.461" y1="600.785" y2="720.121"/>
  <line id="left-margin-Ultralight-S" style="fill:none;stroke:#00AEEF;stroke-width:0.5;opacity:1.0;" x1="507.961" x2="507.961" y1="600.785" y2="720.121"/>
 </g>
 <g id="Symbols">
  <g id="Black-S" transform="matrix(1 0 0 1 2870.15 696)">
   <path class="monochrome-0 multicolor-0:tintColor hierarchical-0:primary SFSymbolsPreviewWireframe" d="M29.5653-7.2993C21.8057-7.2993 15.2043-12.6268 15.2043-20.3091C15.2043-28.4933 21.4969-32.9329 32.8853-33.6278L42.2277-34.2068L42.2277-36.2915C42.2277-39.1482 40.0658-40.6924 37.0932-40.6924C34.6225-40.6924 33.3872-40.0361 30.6462-37.5268C28.7932-35.8282 26.7858-34.9789 24.4309-34.9789C20.6862-34.9789 18.0225-37.2952 18.0225-40.5766C18.0225-41.5417 18.0997-42.1594 18.3313-42.9315C19.9527-48.3748 27.3262-51.6176 37.9425-51.6176C49.7556-51.6176 57.6695-45.711 57.6695-37.0636L57.6695-14.9045C57.6695-9.4226 54.3881-6.9519 49.8328-6.9519C45.8366-6.9519 42.9754-8.8315 42.3027-13.0666L42.2277-13.6305L41.9188-13.6305C39.6797-9.4612 34.5067-7.2993 29.5653-7.2993ZM35.4718-17.877C38.9849-17.877 42.2277-19.8459 42.2277-22.9728L42.2277-25.7524L35.5104-25.2891C32.4993-25.0575 30.8007-23.6291 30.8007-21.5445C30.8007-19.2282 32.6923-17.877 35.4718-17.877ZM87.5465 8.104C77.3549 8.104 70.406 4.3593 67.8581 0.0356C67.1632-1.1998 66.9316-2.4737 66.9316-3.6705C66.9316-6.6816 69.2865-9.0751 73.1084-9.0751C74.9228-9.0751 76.6214-8.4961 78.0884-7.3765C80.7907-5.3305 83.8019-3.6705 87.1991-3.6705C92.3721-3.6705 95.3061-6.3728 95.3061-10.6965L95.3061-17.5682L94.9972-17.5682C93.6075-13.09 88.7433-9.9631 82.3735-9.9631C71.9888-9.9631 65.7349-17.6454 65.7349-30.4622C65.7349-43.8194 71.7186-51.1543 82.6051-51.1543C88.8205-51.1543 93.4531-47.6413 95.1131-42.8543L95.4219-42.8543L95.4219-43.5878C95.4219-49.1083 98.8963-51.5017 103.413-51.5017C107.968-51.5017 111.25-49.1083 111.25-43.5878L111.25-10.3491C111.25 1.6184 102.795 8.104 87.5465 8.104ZM88.7047-20.8496C92.9898-20.8496 95.4991-24.0152 95.4991-30.1533C95.4991-36.2143 92.9512-39.9203 88.7047-39.9203C84.4581-39.9203 81.9488-36.2143 81.9488-30.1919C81.9488-24.0538 84.4195-20.8496 88.7047-20.8496Z"/>
  </g>
  <g id="Regular-S" transform="matrix(1 0 0 1 1395.94 696)">
   <path class="monochrome-0 multicolor-0:tintColor hierarchical-0:primary SFSymbolsPreviewWireframe" d="M27.0223-7.2221C19.0312-7.2221 13.6651-12.0477 13.6651-19.2668C13.6651-26.1384 18.9539-30.4622 28.2191-31.0026L39.7619-31.6589L39.7619-35.0175C39.7619-39.9203 36.5191-42.8543 30.96-42.8543C26.5977-42.8543 23.6251-41.2715 21.386-37.2952C20.7684-36.1757 19.8805-35.6738 18.6065-35.6738C16.8693-35.6738 15.6339-36.8706 15.6339-38.685C15.6339-39.5343 15.9042-40.4994 16.4446-41.4645C18.7223-45.8655 24.5902-48.7608 31.1144-48.7608C40.534-48.7608 46.4791-43.665 46.4791-35.6738L46.4791-10.6193C46.4791-8.6119 45.1666-7.2221 43.3135-7.2221C41.4219-7.2221 40.1093-8.6119 40.1093-10.6193L40.1093-14.8272L39.9549-14.8272C37.5614-10.2333 32.427-7.2221 27.0223-7.2221ZM28.5279-12.9356C34.8591-12.9356 39.7619-17.3752 39.7619-23.1659L39.7619-26.4473L28.9912-25.791C23.5865-25.4436 20.4981-23.0501 20.4981-19.2668C20.4981-15.4449 23.7023-12.9356 28.5279-12.9356ZM72.806 7.2161C66.0888 7.1388 60.4911 4.4751 57.673 0.0356C57.1325-0.8137 56.9009-1.5858 56.9009-2.4737C56.9009-4.1723 58.1362-5.3691 59.912-5.3691C61.0316-5.3691 61.6878-4.983 62.7302-3.8249C66.166-0.0416 68.9841 1.4253 73.0762 1.5026C80.2567 1.6184 84.6191-2.5123 84.6191-8.4961L84.6191-14.8272L84.4646-14.8272C81.9939-10.4649 77.2069-7.6082 71.5707-7.6082C61.3404-7.6082 54.6232-15.6766 54.6232-28.1459C54.6232-40.731 61.3404-48.7608 71.7251-48.7608C77.4-48.7608 81.8395-45.9813 84.5032-41.4645L84.6191-41.4645L84.6191-45.2864C84.6191-47.371 86.0474-48.7608 87.9777-48.7608C89.9079-48.7608 91.3363-47.371 91.3363-45.2864L91.3363-8.7277C91.3363 0.8463 84.233 7.3319 72.806 7.2161ZM72.9218-13.5147C79.9093-13.5147 84.6191-19.3054 84.6191-28.1459C84.6191-36.9864 79.9093-42.8543 72.9218-42.8543C66.0116-42.8543 61.4948-37.1408 61.4948-28.1459C61.4948-19.151 66.0116-13.5147 72.9218-13.5147Z"/>
  </g>
  <g id="Ultralight-S" transform="matrix(1 0 0 1 507.961 696)">
   <path class="monochrome-0 multicolor-0:tintColor hierarchical-0:primary SFSymbolsPreviewWireframe" d="M28.9159-7.3379C21.1178-7.3379 15.6745-11.9319 15.6745-18.5719C15.6745-25.2891 20.4229-29.304 29.8038-30.0375L44.2806-31.1184L44.2806-34.7473C44.2806-42.3138 39.7639-46.9078 32.1973-46.9078C25.2099-46.9078 20.4229-43.665 18.9559-36.9478C18.8401-36.3687 18.5699-36.0599 18.068-36.0599C17.5275-36.0599 17.2187-36.4073 17.2187-36.9864C17.2187-37.5268 17.4117-38.4533 17.6433-39.1868C19.342-44.7073 24.4378-48.645 32.1973-48.645C40.8834-48.645 46.1722-43.3948 46.1722-34.9017L46.1722-8.3417C46.1722-7.724 45.7862-7.3379 45.2457-7.3379C44.6667-7.3379 44.2806-7.724 44.2806-8.3417L44.2806-17.0277L44.242-17.0277C42.3118-11.3142 36.0578-7.3379 28.9159-7.3379ZM29.0703-9.0751C37.409-9.0751 44.2806-15.1747 44.2806-22.7026L44.2806-29.4584L30.0741-28.3775C21.8899-27.7598 17.5661-24.2082 17.5661-18.7649C17.5661-12.9742 22.4303-9.0751 29.0703-9.0751ZM73.1739 6.4054C65.1828 6.3668 59.9325 2.5835 58.1567-1.7788C58.0023-2.1263 57.9251-2.4737 57.9251-2.8212C57.9251-3.4002 58.2725-3.7091 58.8516-3.7091C59.2762-3.7091 59.5851-3.4389 59.8553-2.8212C61.4381 1.1937 66.0321 4.6681 73.2512 4.6681C82.1688 4.6681 87.7279-0.4663 87.7279-8.1872L87.7279-19.6914L87.6507-19.6914C86.0679-12.8584 80.0842-7.3379 72.093-7.3379C62.1716-7.3379 55.2227-15.7152 55.2227-27.9915C55.2227-40.3064 62.1716-48.645 72.093-48.645C80.2772-48.645 86.0293-42.9701 87.6507-36.4845L87.7279-36.4845L87.7279-47.6027C87.7279-48.2589 88.1526-48.645 88.693-48.645C89.1949-48.645 89.6196-48.2589 89.6196-47.6027L89.6196-8.2644C89.6196 0.576 83.3656 6.4054 73.1739 6.4054ZM72.286-9.1524C81.3581-9.1524 87.7279-16.9119 87.7279-27.9915C87.7279-39.1482 81.3195-46.9078 72.286-46.9078C63.2911-46.9078 57.153-39.2254 57.153-27.9529C57.153-16.7961 63.2525-9.1524 72.286-9.1524Z"/>
  </g>
 </g>
</svg>
