<?xml version="1.0" encoding="UTF-8"?>
<!--Generator: Apple Native CoreSVG 232.5-->
<!DOCTYPE svg
PUBLIC "-//W3C//DTD SVG 1.1//EN"
       "http://www.w3.org/Graphics/SVG/1.1/DTD/svg11.dtd">
<svg version="1.1" xmlns="http://www.w3.org/2000/svg" xmlns:xlink="http://www.w3.org/1999/xlink" width="3300" height="2200">
 <!--glyph: "", point size: 100.0, font version: "19.0d8e1", template writer version: "128"-->
 <style>.monochrome-0 {}
.monochrome-1 {opacity:0.0;-sfsymbols-clear-behind:true}
.monochrome-2 {}

.multicolor-0:tintColor {}
.multicolor-1:tintColor {opacity:0.0;-sfsymbols-clear-behind:true}
.multicolor-2:tintColor {}

.hierarchical-0:secondary {}
.hierarchical-1:primary {opacity:0.0;-sfsymbols-clear-behind:true}
.hierarchical-2:primary {}

.SFSymbolsPreview007AFF {fill:#007AFF;opacity:1.0}
</style>
 <g id="Notes">
  <rect height="2200" id="artboard" style="fill:white;opacity:1" width="3300" x="0" y="0"/>
  <line style="fill:none;stroke:black;opacity:1;stroke-width:0.5;" x1="263" x2="3036" y1="292" y2="292"/>
  <text style="stroke:none;fill:black;font-family:sans-serif;font-size:13;font-weight:bold;" transform="matrix(1 0 0 1 263 322)">Weight/Scale Variations</text>
  <text style="stroke:none;fill:black;font-family:sans-serif;font-size:13;text-anchor:middle;" transform="matrix(1 0 0 1 559.711 322)">Ultralight</text>
  <text style="stroke:none;fill:black;font-family:sans-serif;font-size:13;text-anchor:middle;" transform="matrix(1 0 0 1 856.422 322)">Thin</text>
  <text style="stroke:none;fill:black;font-family:sans-serif;font-size:13;text-anchor:middle;" transform="matrix(1 0 0 1 1153.13 322)">Light</text>
  <text style="stroke:none;fill:black;font-family:sans-serif;font-size:13;text-anchor:middle;" transform="matrix(1 0 0 1 1449.84 322)">Regular</text>
  <text style="stroke:none;fill:black;font-family:sans-serif;font-size:13;text-anchor:middle;" transform="matrix(1 0 0 1 1746.56 322)">Medium</text>
  <text style="stroke:none;fill:black;font-family:sans-serif;font-size:13;text-anchor:middle;" transform="matrix(1 0 0 1 2043.27 322)">Semibold</text>
  <text style="stroke:none;fill:black;font-family:sans-serif;font-size:13;text-anchor:middle;" transform="matrix(1 0 0 1 2339.98 322)">Bold</text>
  <text style="stroke:none;fill:black;font-family:sans-serif;font-size:13;text-anchor:middle;" transform="matrix(1 0 0 1 2636.69 322)">Heavy</text>
  <text style="stroke:none;fill:black;font-family:sans-serif;font-size:13;text-anchor:middle;" transform="matrix(1 0 0 1 2933.4 322)">Black</text>
  <line style="fill:none;stroke:black;opacity:1;stroke-width:0.5;" x1="263" x2="3036" y1="1903" y2="1903"/>
  <g transform="matrix(0.2 0 0 0.2 263 1933)">
   <path d="m46.2402 4.15039c21.5332 0 39.4531-17.8711 39.4531-39.4043s-17.9688-39.4043-39.502-39.4043c-21.4844 0-39.3555 17.8711-39.3555 39.4043s17.9199 39.4043 39.4043 39.4043Zm0-7.42188c-17.7246 0-31.8848-14.209-31.8848-31.9824s14.1113-31.9824 31.8359-31.9824c17.7734 0 32.0312 14.209 32.0312 31.9824s-14.209 31.9824-31.9824 31.9824Zm-17.9688-31.9824c0 2.14844 1.51367 3.61328 3.75977 3.61328h10.498v10.5957c0 2.19727 1.46484 3.71094 3.61328 3.71094 2.24609 0 3.71094-1.51367 3.71094-3.71094v-10.5957h10.5957c2.19727 0 3.71094-1.46484 3.71094-3.61328 0-2.19727-1.51367-3.71094-3.71094-3.71094h-10.5957v-10.5469c0-2.24609-1.46484-3.75977-3.71094-3.75977-2.14844 0-3.61328 1.51367-3.61328 3.75977v10.5469h-10.498c-2.24609 0-3.75977 1.51367-3.75977 3.71094Z"/>
  </g>
  <g transform="matrix(0.2 0 0 0.2 281.506 1933)">
   <path d="m58.5449 14.5508c27.2461 0 49.8047-22.6074 49.8047-49.8047 0-27.2461-22.6074-49.8047-49.8535-49.8047-27.1973 0-49.7559 22.5586-49.7559 49.8047 0 27.1973 22.6074 49.8047 49.8047 49.8047Zm0-8.30078c-23.0469 0-41.4551-18.457-41.4551-41.5039s18.3594-41.5039 41.4062-41.5039 41.5527 18.457 41.5527 41.5039-18.457 41.5039-41.5039 41.5039Zm-22.6562-41.5039c0 2.39258 1.66016 4.00391 4.15039 4.00391h14.3555v14.4043c0 2.44141 1.66016 4.15039 4.05273 4.15039 2.44141 0 4.15039-1.66016 4.15039-4.15039v-14.4043h14.4043c2.44141 0 4.15039-1.61133 4.15039-4.00391 0-2.44141-1.70898-4.15039-4.15039-4.15039h-14.4043v-14.3555c0-2.49023-1.70898-4.19922-4.15039-4.19922-2.39258 0-4.05273 1.70898-4.05273 4.19922v14.3555h-14.3555c-2.49023 0-4.15039 1.70898-4.15039 4.15039Z"/>
  </g>
  <g transform="matrix(0.2 0 0 0.2 304.924 1933)">
   <path d="m74.8535 28.3203c34.8145 0 63.623-28.8086 63.623-63.5742 0-34.8145-28.8574-63.623-63.6719-63.623-34.7656 0-63.5254 28.8086-63.5254 63.623 0 34.7656 28.8086 63.5742 63.5742 63.5742Zm0-9.08203c-30.1758 0-54.4434-24.3164-54.4434-54.4922 0-30.2246 24.2188-54.4922 54.3945-54.4922 30.2246 0 54.541 24.2676 54.541 54.4922 0 30.1758-24.2676 54.4922-54.4922 54.4922Zm-28.8574-54.4922c0 2.58789 1.85547 4.39453 4.58984 4.39453h19.7266v19.7754c0 2.68555 1.85547 4.58984 4.44336 4.58984 2.68555 0 4.54102-1.85547 4.54102-4.58984v-19.7754h19.7754c2.68555 0 4.58984-1.80664 4.58984-4.39453 0-2.73438-1.85547-4.58984-4.58984-4.58984h-19.7754v-19.7266c0-2.73438-1.85547-4.63867-4.54102-4.63867-2.58789 0-4.44336 1.9043-4.44336 4.63867v19.7266h-19.7266c-2.73438 0-4.58984 1.85547-4.58984 4.58984Z"/>
  </g>
  <text style="stroke:none;fill:black;font-family:sans-serif;font-size:13;font-weight:bold;" transform="matrix(1 0 0 1 263 1953)">Design Variations</text>
  <text style="stroke:none;fill:black;font-family:sans-serif;font-size:13;" transform="matrix(1 0 0 1 263 1971)">Symbols are supported in up to nine weights and three scales.</text>
  <text style="stroke:none;fill:black;font-family:sans-serif;font-size:13;" transform="matrix(1 0 0 1 263 1989)">For optimal layout with text and other symbols, vertically align</text>
  <text style="stroke:none;fill:black;font-family:sans-serif;font-size:13;" transform="matrix(1 0 0 1 263 2007)">symbols with the adjacent text.</text>
  <line style="fill:none;stroke:#00AEEF;stroke-width:0.5;opacity:1.0;" x1="776" x2="776" y1="1919" y2="1933"/>
  <g transform="matrix(0.2 0 0 0.2 776 1933)">
   <path d="m16.5527 0.78125c2.58789 0 3.85742-0.976562 4.78516-3.71094l6.29883-17.2363h28.8086l6.29883 17.2363c0.927734 2.73438 2.19727 3.71094 4.73633 3.71094 2.58789 0 4.24805-1.5625 4.24805-4.00391 0-0.830078-0.146484-1.61133-0.537109-2.63672l-22.9004-60.9863c-1.12305-2.97852-3.125-4.49219-6.25-4.49219-3.02734 0-5.07812 1.46484-6.15234 4.44336l-22.9004 61.084c-0.390625 1.02539-0.537109 1.80664-0.537109 2.63672 0 2.44141 1.5625 3.95508 4.10156 3.95508Zm13.4766-28.3691 11.8652-32.8613h0.244141l11.8652 32.8613Z"/>
  </g>
  <line style="fill:none;stroke:#00AEEF;stroke-width:0.5;opacity:1.0;" x1="792.836" x2="792.836" y1="1919" y2="1933"/>
  <text style="stroke:none;fill:black;font-family:sans-serif;font-size:13;font-weight:bold;" transform="matrix(1 0 0 1 776 1953)">Margins</text>
  <text style="stroke:none;fill:black;font-family:sans-serif;font-size:13;" transform="matrix(1 0 0 1 776 1971)">Leading and trailing margins on the left and right side of each symbol</text>
  <text style="stroke:none;fill:black;font-family:sans-serif;font-size:13;" transform="matrix(1 0 0 1 776 1989)">can be adjusted by modifying the x-location of the margin guidelines.</text>
  <text style="stroke:none;fill:black;font-family:sans-serif;font-size:13;" transform="matrix(1 0 0 1 776 2007)">Modifications are automatically applied proportionally to all</text>
  <text style="stroke:none;fill:black;font-family:sans-serif;font-size:13;" transform="matrix(1 0 0 1 776 2025)">scales and weights.</text>
  <g transform="matrix(0.2 0 0 0.2 1289 1933)">
   <path d="m14.209 9.32617 8.49609 8.54492c4.29688 4.3457 9.22852 4.05273 13.8672-1.07422l53.4668-58.9355-4.83398-4.88281-53.0762 58.3984c-1.75781 2.00195-3.41797 2.49023-5.76172 0.146484l-5.85938-5.81055c-2.34375-2.29492-1.80664-4.00391 0.195312-5.81055l57.373-54.0039-4.88281-4.83398-57.959 54.4434c-4.93164 4.58984-5.32227 9.47266-1.02539 13.8184Zm32.0801-90.9668c-2.09961 2.05078-2.24609 4.93164-1.07422 6.88477 1.17188 1.80664 3.4668 2.97852 6.68945 2.14844 7.32422-1.70898 14.9414-2.00195 22.0703 2.68555l-2.92969 7.27539c-1.70898 4.15039-0.830078 7.08008 1.85547 9.81445l11.4746 11.5723c2.44141 2.44141 4.49219 2.53906 7.32422 2.05078l5.32227-0.976562 3.32031 3.36914-0.195312 2.7832c-0.195312 2.49023 0.439453 4.39453 2.88086 6.78711l3.80859 3.71094c2.39258 2.39258 5.46875 2.53906 7.8125 0.195312l14.5508-14.5996c2.34375-2.34375 2.24609-5.32227-0.146484-7.71484l-3.85742-3.80859c-2.39258-2.39258-4.24805-3.17383-6.64062-2.97852l-2.88086 0.244141-3.22266-3.17383 1.2207-5.61523c0.634766-2.83203-0.146484-5.0293-3.07617-7.95898l-10.9863-10.9375c-16.6992-16.6016-38.8672-16.2109-53.3203-1.75781Zm7.4707 1.85547c12.1582-8.88672 28.6133-7.37305 39.7461 3.75977l12.1582 12.0605c1.17188 1.17188 1.36719 2.09961 1.02539 3.80859l-1.61133 7.42188 7.51953 7.42188 4.93164-0.292969c1.26953-0.0488281 1.66016 0.0488281 2.63672 1.02539l2.88086 2.88086-12.207 12.207-2.88086-2.88086c-0.976562-0.976562-1.12305-1.36719-1.07422-2.68555l0.341797-4.88281-7.4707-7.42188-7.61719 1.26953c-1.61133 0.341797-2.34375 0.195312-3.56445-0.976562l-10.0098-10.0098c-1.26953-1.17188-1.41602-2.00195-0.634766-3.85742l4.39453-10.4492c-7.8125-7.27539-17.9688-10.4004-28.125-7.42188-0.78125 0.195312-1.07422-0.439453-0.439453-0.976562Z"/>
  </g>
  <text style="stroke:none;fill:black;font-family:sans-serif;font-size:13;font-weight:bold;" transform="matrix(1 0 0 1 1289 1953)">Exporting</text>
  <text style="stroke:none;fill:black;font-family:sans-serif;font-size:13;" transform="matrix(1 0 0 1 1289 1971)">Symbols should be outlined when exporting to ensure the</text>
  <text style="stroke:none;fill:black;font-family:sans-serif;font-size:13;" transform="matrix(1 0 0 1 1289 1989)">design is preserved when submitting to Xcode.</text>
  <text id="template-version" style="stroke:none;fill:black;font-family:sans-serif;font-size:13;text-anchor:end;" transform="matrix(1 0 0 1 3036 1933)">Template v.4.0</text>
  <text style="stroke:none;fill:black;font-family:sans-serif;font-size:13;text-anchor:end;" transform="matrix(1 0 0 1 3036 1951)">Requires Xcode 14 or greater</text>
  <text id="descriptive-name" style="stroke:none;fill:black;font-family:sans-serif;font-size:13;text-anchor:end;" transform="matrix(1 0 0 1 3036 1969)">Generated from custom.camera.dual</text>
  <text style="stroke:none;fill:black;font-family:sans-serif;font-size:13;text-anchor:end;" transform="matrix(1 0 0 1 3036 1987)">Typeset at 100.0 points</text>
  <text style="stroke:none;fill:black;font-family:sans-serif;font-size:13;" transform="matrix(1 0 0 1 263 726)">Small</text>
  <text style="stroke:none;fill:black;font-family:sans-serif;font-size:13;" transform="matrix(1 0 0 1 263 1156)">Medium</text>
  <text style="stroke:none;fill:black;font-family:sans-serif;font-size:13;" transform="matrix(1 0 0 1 263 1586)">Large</text>
 </g>
 <g id="Guides">
  <g id="H-reference" style="fill:#27AAE1;stroke:none;" transform="matrix(1 0 0 1 339 696)">
   <path d="M0.993654 0L3.63775 0L29.3281-67.1323L30.0303-67.1323L30.0303-70.459L28.1226-70.459ZM11.6885-24.4799L46.9815-24.4799L46.2315-26.7285L12.4385-26.7285ZM55.1196 0L57.7637 0L30.6382-70.459L29.4326-70.459L29.4326-67.1323Z"/>
  </g>
  <line id="Baseline-S" style="fill:none;stroke:#27AAE1;opacity:1;stroke-width:0.5;" x1="263" x2="3036" y1="696" y2="696"/>
  <line id="Capline-S" style="fill:none;stroke:#27AAE1;opacity:1;stroke-width:0.5;" x1="263" x2="3036" y1="625.541" y2="625.541"/>
  <g id="H-reference" style="fill:#27AAE1;stroke:none;" transform="matrix(1 0 0 1 339 1126)">
   <path d="M0.993654 0L3.63775 0L29.3281-67.1323L30.0303-67.1323L30.0303-70.459L28.1226-70.459ZM11.6885-24.4799L46.9815-24.4799L46.2315-26.7285L12.4385-26.7285ZM55.1196 0L57.7637 0L30.6382-70.459L29.4326-70.459L29.4326-67.1323Z"/>
  </g>
  <line id="Baseline-M" style="fill:none;stroke:#27AAE1;opacity:1;stroke-width:0.5;" x1="263" x2="3036" y1="1126" y2="1126"/>
  <line id="Capline-M" style="fill:none;stroke:#27AAE1;opacity:1;stroke-width:0.5;" x1="263" x2="3036" y1="1055.54" y2="1055.54"/>
  <g id="H-reference" style="fill:#27AAE1;stroke:none;" transform="matrix(1 0 0 1 339 1556)">
   <path d="M0.993654 0L3.63775 0L29.3281-67.1323L30.0303-67.1323L30.0303-70.459L28.1226-70.459ZM11.6885-24.4799L46.9815-24.4799L46.2315-26.7285L12.4385-26.7285ZM55.1196 0L57.7637 0L30.6382-70.459L29.4326-70.459L29.4326-67.1323Z"/>
  </g>
  <line id="Baseline-L" style="fill:none;stroke:#27AAE1;opacity:1;stroke-width:0.5;" x1="263" x2="3036" y1="1556" y2="1556"/>
  <line id="Capline-L" style="fill:none;stroke:#27AAE1;opacity:1;stroke-width:0.5;" x1="263" x2="3036" y1="1485.54" y2="1485.54"/>
  <line id="left-margin-Ultralight-S" style="fill:none;stroke:#00AEEF;stroke-width:0.5;opacity:1.0;" x1="515.649" x2="515.649" y1="600.785" y2="720.121"/>
  <line id="right-margin-Ultralight-S" style="fill:none;stroke:#00AEEF;stroke-width:0.5;opacity:1.0;" x1="603.773" x2="603.773" y1="600.785" y2="720.121"/>
  <line id="left-margin-Regular-S" style="fill:none;stroke:#00AEEF;stroke-width:0.5;opacity:1.0;" x1="1403.58" x2="1403.58" y1="600.785" y2="720.121"/>
  <line id="right-margin-Regular-S" style="fill:none;stroke:#00AEEF;stroke-width:0.5;opacity:1.0;" x1="1496.11" x2="1496.11" y1="600.785" y2="720.121"/>
  <line id="left-margin-Black-S" style="fill:none;stroke:#00AEEF;stroke-width:0.5;opacity:1.0;" x1="2884.57" x2="2884.57" y1="600.785" y2="720.121"/>
  <line id="right-margin-Black-S" style="fill:none;stroke:#00AEEF;stroke-width:0.5;opacity:1.0;" x1="2982.23" x2="2982.23" y1="600.785" y2="720.121"/>
 </g>
 <g id="Symbols">
  <g id="Black-S" transform="matrix(1 0 0 1 2884.57 696)">
   <path class="monochrome-0 multicolor-0:tintColor hierarchical-0:secondary SFSymbolsPreview007AFF" d="M27.4808-74.5882C30.318-77.4704 34.1931-79.0934 38.2374-79.0934L45.4274-79.0934C49.4305-79.0934 53.2697-77.5032 56.1003-74.6725L59.6729-71.1C62.5035-68.2693 64.0938-64.4302 64.0938-60.4271L64.0938-26.6246C64.0938-18.2886 57.336-11.5309 49-11.5309L20.25-11.5309C11.914-11.5309 5.15625-18.2886 5.15625-26.6246L5.15625-55.2378C5.15625-63.5738 11.914-70.3315 20.25-70.3315L22.3876-70.3315C22.9653-70.3315 23.5189-70.5634 23.9242-70.9751L27.4808-74.5882ZM38.2374-66.1559C37.6597-66.1559 37.1061-65.924 36.7008-65.5123L33.1442-61.8992C30.307-59.017 26.4319-57.394 22.3876-57.394L20.25-57.394C19.0591-57.394 18.0938-56.4286 18.0938-55.2378L18.0938-26.6246C18.0938-25.4338 19.0591-24.4684 20.25-24.4684L49-24.4684C50.1909-24.4684 51.1562-25.4338 51.1562-26.6246L51.1562-60.4271C51.1562-60.9989 50.9291-61.5474 50.5247-61.9518L46.9521-65.5243C46.5477-65.9287 45.9993-66.1559 45.4274-66.1559L38.2374-66.1559Z"/>
   <path class="monochrome-1 monochrome-2 multicolor-1:tintColor multicolor-2:tintColor hierarchical-1:primary hierarchical-2:primary SFSymbolsPreview007AFF" d="M41.8558-57.338C44.693-60.2202 48.5681-61.8432 52.6124-61.8432L59.8024-61.8432C63.8055-61.8432 67.6447-60.253 70.4753-57.4224L74.0818-53.8158C74.4812-53.4165 75.0213-53.1897 75.586-53.1844L77.8937-53.1624C86.1733-53.0835 92.8438-46.3493 92.8438-38.0693L92.8438-6.4995C92.8438 1.8366 86.086 8.5943 77.75 8.5943L34.625 8.5943C26.289 8.5943 19.5312 1.8366 19.5312-6.4995L19.5312-37.9876C19.5312-46.3236 26.289-53.0813 34.625-53.0813L36.7626-53.0813C37.3403-53.0813 37.8939-53.3132 38.2992-53.7249L41.8558-57.338Z"/>
   <path class="monochrome-2 multicolor-2:tintColor hierarchical-2:primary SFSymbolsPreview007AFF" d="M52.6124-48.9057C52.0347-48.9057 51.4811-48.6739 51.0758-48.2621L47.5192-44.649C44.682-41.7669 40.8069-40.1438 36.7626-40.1438L34.625-40.1438C33.4341-40.1438 32.4688-39.1784 32.4688-37.9876L32.4688-6.4995C32.4688-5.3086 33.4341-4.3432 34.625-4.3432L77.75-4.3432C78.9409-4.3432 79.9062-5.3086 79.9062-6.4995L79.9062-38.0693C79.9062-39.2522 78.9533-40.2142 77.7705-40.2255L75.4628-40.2475C71.5097-40.2851 67.7291-41.8722 64.9337-44.6676L61.3271-48.2742C60.9227-48.6785 60.3743-48.9057 59.8024-48.9057L52.6124-48.9057ZM77.7501-33.0937C77.7501-31.1089 76.1411-29.4999 74.1564-29.4999C72.1716-29.4999 70.5626-31.1089 70.5626-33.0937C70.5626-35.0784 72.1716-36.6874 74.1564-36.6874C76.1411-36.6874 77.7501-35.0784 77.7501-33.0937ZM56.1876-39.5625C47.4546-39.5625 40.3751-32.483 40.3751-23.75C40.3751-15.017 47.4546-7.9375 56.1876-7.9375C64.9206-7.9375 72.0001-15.017 72.0001-23.75C72.0001-32.483 64.9206-39.5625 56.1876-39.5625ZM49.0001-23.75C49.0001-27.7195 52.218-30.9375 56.1876-30.9375C60.1571-30.9375 63.3751-27.7195 63.3751-23.75C63.3751-19.7804 60.1571-16.5625 56.1876-16.5625C52.218-16.5625 49.0001-19.7804 49.0001-23.75Z"/>
  </g>
  <g id="Regular-S" transform="matrix(1 0 0 1 1403.58 696)">
   <path class="monochrome-0 multicolor-0:tintColor hierarchical-0:secondary SFSymbolsPreview007AFF" d="M26.2223-69.9989C28.6001-72.4145 31.8478-73.7747 35.2374-73.7747L42.4273-73.7747C45.7823-73.7747 48.9999-72.442 51.3722-70.0696L54.9448-66.497C57.3172-64.1247 58.6499-60.9071 58.6499-57.5521L58.6499-23.7497C58.6499-16.7633 52.9863-11.0997 45.9999-11.0997L17.2499-11.0997C10.2635-11.0997 4.59993-16.7633 4.59993-23.7497L4.59993-52.3628C4.59993-59.3492 10.2635-65.0128 17.2499-65.0128L19.3875-65.0128C20.62-65.0128 21.801-65.5075 22.6657-66.3858L26.2223-69.9989ZM35.2374-65.7247C34.0048-65.7247 32.8238-65.2301 31.9592-64.3517L28.4025-60.7386C26.0247-58.3231 22.777-56.9628 19.3875-56.9628L17.2499-56.9628C14.7094-56.9628 12.6499-54.9033 12.6499-52.3628L12.6499-23.7497C12.6499-21.2092 14.7094-19.1497 17.2499-19.1497L45.9999-19.1497C48.5404-19.1497 50.5999-21.2092 50.5999-23.7497L50.5999-57.5521C50.5999-58.7721 50.1153-59.9422 49.2526-60.8048L45.68-64.3774C44.8174-65.2401 43.6473-65.7247 42.4273-65.7247L35.2374-65.7247Z"/>
   <path class="monochrome-1 monochrome-2 multicolor-1:tintColor multicolor-2:tintColor hierarchical-1:primary hierarchical-2:primary SFSymbolsPreview007AFF" d="M40.5977-55.6239C42.9755-58.0395 46.2232-59.3997 49.6127-59.3997L56.8027-59.3997C60.1577-59.3997 63.3753-58.067 65.7476-55.6946L69.3541-52.0881C70.2061-51.2361 71.3583-50.7524 72.563-50.741L74.8708-50.719C81.8098-50.6529 87.4003-45.009 87.4003-38.0696L87.4003-9.3747C87.4003-2.3883 81.7367 3.2753 74.7503 3.2753L31.6253 3.2753C24.6389 3.2753 18.9753-2.3883 18.9753-9.3747L18.9753-37.9878C18.9753-44.9742 24.6389-50.6378 31.6253-50.6378L33.7628-50.6378C34.9954-50.6378 36.1764-51.1325 37.041-52.0108L40.5977-55.6239Z"/>
   <path class="monochrome-2 multicolor-2:tintColor hierarchical-2:primary SFSymbolsPreview007AFF" d="M49.6127-51.3497C48.3802-51.3497 47.1992-50.8551 46.3345-49.9767L42.7779-46.3636C40.4001-43.9481 37.1524-42.5878 33.7628-42.5878L31.6253-42.5878C29.0848-42.5878 27.0253-40.5283 27.0253-37.9878L27.0253-9.3747C27.0253-6.8342 29.0848-4.7747 31.6253-4.7747L74.7503-4.7747C77.2908-4.7747 79.3503-6.8342 79.3503-9.3747L79.3503-38.0696C79.3503-40.593 77.3174-42.6453 74.7941-42.6694L72.4864-42.6913C69.1732-42.7229 66.0048-44.053 63.6619-46.3959L60.0554-50.0024C59.1927-50.8651 58.0227-51.3497 56.8027-51.3497L49.6127-51.3497ZM76.1877-34.5309C76.1877-32.5462 74.5787-30.9372 72.5939-30.9372C70.6092-30.9372 69.0002-32.5462 69.0002-34.5309C69.0002-36.5157 70.6092-38.1247 72.5939-38.1247C74.5787-38.1247 76.1877-36.5157 76.1877-34.5309ZM53.1877-40.9997C44.4547-40.9997 37.3752-33.9202 37.3752-25.1872C37.3752-16.4542 44.4547-9.3747 53.1877-9.3747C61.9207-9.3747 69.0002-16.4542 69.0002-25.1872C69.0002-33.9202 61.9207-40.9997 53.1877-40.9997ZM43.1252-25.1872C43.1252-30.7446 47.6303-35.2497 53.1877-35.2497C58.7451-35.2497 63.2502-30.7446 63.2502-25.1872C63.2502-19.6298 58.7451-15.1247 53.1877-15.1247C47.6303-15.1247 43.1252-19.6298 43.1252-25.1872Z"/>
  </g>
  <g id="Ultralight-S" transform="matrix(1 0 0 1 515.649 696)">
   <path class="monochrome-0 multicolor-0:tintColor hierarchical-0:secondary SFSymbolsPreview007AFF" d="M26.6936-68.4111C28.2607-70.0032 30.4013-70.8997 32.6353-70.8997L41.0228-70.8997C43.234-70.8997 45.3547-70.0213 46.9183-68.4577L51.3329-64.0431C52.8965-62.4795 53.7749-60.3588 53.7749-58.1476L53.7749-22.3122C53.7749-17.7075 50.0421-13.9747 45.4374-13.9747L13.8124-13.9747C9.2078-13.9747 5.47493-17.7075 5.47493-22.3122L5.47493-53.8003C5.47493-58.405 9.2078-62.1378 13.8124-62.1378L17.9896-62.1378C19.6073-62.1378 21.1573-62.787 22.2922-63.9399L26.6936-68.4111ZM32.6353-68.5997C31.0176-68.5997 29.4675-67.9505 28.3327-66.7976L23.9313-62.3264C22.3641-60.7343 20.2236-59.8378 17.9896-59.8378L13.8124-59.8378C10.478-59.8378 7.77493-57.1347 7.77493-53.8003L7.77493-22.3122C7.77493-18.9778 10.478-16.2747 13.8124-16.2747L45.4374-16.2747C48.7718-16.2747 51.4749-18.9778 51.4749-22.3122L51.4749-58.1476C51.4749-59.7488 50.8388-61.2845 49.7066-62.4167L45.2919-66.8314C44.1597-67.9636 42.624-68.5997 41.0228-68.5997L32.6353-68.5997Z"/>
   <path class="monochrome-1 monochrome-2 multicolor-1:tintColor multicolor-2:tintColor hierarchical-1:primary hierarchical-2:primary SFSymbolsPreview007AFF" d="M41.0686-54.0361C42.6357-55.6282 44.7763-56.5247 47.0103-56.5247L55.3978-56.5247C57.609-56.5247 59.7297-55.6463 61.2933-54.0827L65.7362-49.6398C66.8544-48.5216 68.3666-47.8868 69.9479-47.8717L74.2668-47.8306C78.8403-47.787 82.5249-44.0671 82.5249-39.4934L82.5249-7.9372C82.5249-3.3325 78.7921 0.4003 74.1874 0.4003L28.1874 0.4003C23.5828 0.4003 19.8499-3.3325 19.8499-7.9372L19.8499-39.4253C19.8499-44.03 23.5828-47.7628 28.1874-47.7628L32.3646-47.7628C33.9823-47.7628 35.5323-48.412 36.6672-49.5649L41.0686-54.0361Z"/>
   <path class="monochrome-2 multicolor-2:tintColor hierarchical-2:primary SFSymbolsPreview007AFF" d="M47.0103-54.2247C45.3926-54.2247 43.8425-53.5755 42.7077-52.4226L38.3063-47.9514C36.7391-46.3593 34.5986-45.4628 32.3646-45.4628L28.1874-45.4628C24.853-45.4628 22.1499-42.7597 22.1499-39.4253L22.1499-7.9372C22.1499-4.6028 24.853-1.8997 28.1874-1.8997L74.1874-1.8997C77.5219-1.8997 80.2249-4.6028 80.2249-7.9372L80.2249-39.4934C80.2249-42.8054 77.5568-45.4991 74.2449-45.5307L69.926-45.5718C67.7423-45.5926 65.654-46.4693 64.1099-48.0134L59.6669-52.4564C58.5347-53.5886 56.999-54.2247 55.3978-54.2247L47.0103-54.2247ZM74.4749-38.1247C74.4749-36.5368 73.1877-35.2497 71.5999-35.2497C70.0121-35.2497 68.7249-36.5368 68.7249-38.1247C68.7249-39.7125 70.0121-40.9997 71.5999-40.9997C73.1877-40.9997 74.4749-39.7125 74.4749-38.1247ZM51.4749-42.15C42.1068-42.15 34.5124-34.5556 34.5124-25.1875C34.5124-15.8194 42.1068-8.225 51.4749-8.225C60.8431-8.225 68.4374-15.8194 68.4374-25.1875C68.4374-34.5556 60.8431-42.15 51.4749-42.15ZM36.8124-25.1875C36.8124-33.2854 43.377-39.85 51.4749-39.85C59.5728-39.85 66.1374-33.2854 66.1374-25.1875C66.1374-17.0896 59.5728-10.525 51.4749-10.525C43.377-10.525 36.8124-17.0896 36.8124-25.1875Z"/>
  </g>
 </g>
</svg>
