<?xml version="1.0" encoding="UTF-8"?>
<!--Generator: Apple Native CoreSVG 341-->
<!DOCTYPE svg
PUBLIC "-//W3C//DTD SVG 1.1//EN"
       "http://www.w3.org/Graphics/SVG/1.1/DTD/svg11.dtd">
<svg version="1.1" xmlns="http://www.w3.org/2000/svg" xmlns:xlink="http://www.w3.org/1999/xlink" viewBox="0 0 3300 2200">
 <!--glyph: "", point size: 100.0, font version: "20.0d10e1", template writer version: "138.0.0"-->
 <style>.monochrome-0 {-sfsymbols-motion-group:1;-sfsymbols-layer-tags:-a6dbb031db4cb4a}
.monochrome-1 {opacity:0.0;-sfsymbols-clear-behind:true;-sfsymbols-motion-group:0;-sfsymbols-layer-tags:-a6dbb031db4cb4a}
.monochrome-2 {-sfsymbols-motion-group:0;-sfsymbols-layer-tags:-a6dbb031db4cb4a}

.multicolor-0:tintColor {-sfsymbols-motion-group:1;-sfsymbols-layer-tags:-a6dbb031db4cb4a}
.multicolor-1:tintColor {opacity:0.0;-sfsymbols-clear-behind:true;-sfsymbols-motion-group:0;-sfsymbols-layer-tags:-a6dbb031db4cb4a}
.multicolor-2:tintColor {-sfsymbols-motion-group:0;-sfsymbols-layer-tags:-a6dbb031db4cb4a}

.hierarchical-0:secondary {-sfsymbols-motion-group:1;-sfsymbols-layer-tags:-a6dbb031db4cb4a}
.hierarchical-1:primary {opacity:0.0;-sfsymbols-clear-behind:true;-sfsymbols-motion-group:0;-sfsymbols-layer-tags:-a6dbb031db4cb4a}
.hierarchical-2:primary {-sfsymbols-motion-group:0;-sfsymbols-layer-tags:-a6dbb031db4cb4a}

.SFSymbolsPreviewWireframe {fill:none;opacity:1.0;stroke:black;stroke-width:0.5}
</style>
 <g id="Notes">
  <rect height="2200" id="artboard" style="fill:white;opacity:1" width="3300" x="0" y="0"/>
  <line style="fill:none;stroke:black;opacity:1;stroke-width:0.5;" x1="263" x2="3036" y1="292" y2="292"/>
  <text style="stroke:none;fill:black;font-family:sans-serif;font-size:13;font-weight:bold;" transform="matrix(1 0 0 1 263 322)">Weight/Scale Variations</text>
  <text style="stroke:none;fill:black;font-family:sans-serif;font-size:13;text-anchor:middle;" transform="matrix(1 0 0 1 559.711 322)">Ultralight</text>
  <text style="stroke:none;fill:black;font-family:sans-serif;font-size:13;text-anchor:middle;" transform="matrix(1 0 0 1 856.422 322)">Thin</text>
  <text style="stroke:none;fill:black;font-family:sans-serif;font-size:13;text-anchor:middle;" transform="matrix(1 0 0 1 1153.13 322)">Light</text>
  <text style="stroke:none;fill:black;font-family:sans-serif;font-size:13;text-anchor:middle;" transform="matrix(1 0 0 1 1449.84 322)">Regular</text>
  <text style="stroke:none;fill:black;font-family:sans-serif;font-size:13;text-anchor:middle;" transform="matrix(1 0 0 1 1746.56 322)">Medium</text>
  <text style="stroke:none;fill:black;font-family:sans-serif;font-size:13;text-anchor:middle;" transform="matrix(1 0 0 1 2043.27 322)">Semibold</text>
  <text style="stroke:none;fill:black;font-family:sans-serif;font-size:13;text-anchor:middle;" transform="matrix(1 0 0 1 2339.98 322)">Bold</text>
  <text style="stroke:none;fill:black;font-family:sans-serif;font-size:13;text-anchor:middle;" transform="matrix(1 0 0 1 2636.69 322)">Heavy</text>
  <text style="stroke:none;fill:black;font-family:sans-serif;font-size:13;text-anchor:middle;" transform="matrix(1 0 0 1 2933.4 322)">Black</text>
  <line style="fill:none;stroke:black;opacity:1;stroke-width:0.5;" x1="263" x2="3036" y1="1903" y2="1903"/>
  <g transform="matrix(0.2 0 0 0.2 263 1933)">
   <path d="m46.2402 4.15039c21.7773 0 39.4531-17.627 39.4531-39.4043s-17.6758-39.4043-39.4531-39.4043c-21.7285 0-39.4043 17.627-39.4043 39.4043s17.6758 39.4043 39.4043 39.4043Zm0-7.42188c-17.6758 0-31.9336-14.3066-31.9336-31.9824s14.2578-31.9824 31.9336-31.9824 31.9824 14.3066 31.9824 31.9824-14.3066 31.9824-31.9824 31.9824Zm-17.9688-31.9824c0 2.14844 1.51367 3.61328 3.75977 3.61328h10.498v10.5957c0 2.19727 1.46484 3.71094 3.61328 3.71094 2.24609 0 3.71094-1.51367 3.71094-3.71094v-10.5957h10.5957c2.19727 0 3.71094-1.46484 3.71094-3.61328 0-2.19727-1.51367-3.71094-3.71094-3.71094h-10.5957v-10.5469c0-2.24609-1.46484-3.75977-3.71094-3.75977-2.14844 0-3.61328 1.51367-3.61328 3.75977v10.5469h-10.498c-2.24609 0-3.75977 1.51367-3.75977 3.71094Z"/>
  </g>
  <g transform="matrix(0.2 0 0 0.2 281.506 1933)">
   <path d="m58.5449 14.5508c27.4902 0 49.8047-22.3145 49.8047-49.8047s-22.3145-49.8047-49.8047-49.8047-49.8047 22.3145-49.8047 49.8047 22.3145 49.8047 49.8047 49.8047Zm0-8.30078c-22.9492 0-41.5039-18.5547-41.5039-41.5039s18.5547-41.5039 41.5039-41.5039 41.5039 18.5547 41.5039 41.5039-18.5547 41.5039-41.5039 41.5039Zm-22.6562-41.5039c0 2.39258 1.66016 4.00391 4.15039 4.00391h14.3555v14.4043c0 2.44141 1.66016 4.15039 4.05273 4.15039 2.44141 0 4.15039-1.66016 4.15039-4.15039v-14.4043h14.4043c2.44141 0 4.15039-1.61133 4.15039-4.00391 0-2.44141-1.70898-4.15039-4.15039-4.15039h-14.4043v-14.3555c0-2.49023-1.70898-4.19922-4.15039-4.19922-2.39258 0-4.05273 1.70898-4.05273 4.19922v14.3555h-14.3555c-2.49023 0-4.15039 1.70898-4.15039 4.15039Z"/>
  </g>
  <g transform="matrix(0.2 0 0 0.2 304.924 1933)">
   <path d="m74.8535 28.3203c35.1074 0 63.623-28.4668 63.623-63.5742s-28.5156-63.623-63.623-63.623-63.5742 28.5156-63.5742 63.623 28.4668 63.5742 63.5742 63.5742Zm0-9.08203c-30.127 0-54.4922-24.3652-54.4922-54.4922s24.3652-54.4922 54.4922-54.4922 54.4922 24.3652 54.4922 54.4922-24.3652 54.4922-54.4922 54.4922Zm-28.8574-54.4922c0 2.58789 1.85547 4.39453 4.58984 4.39453h19.7266v19.7754c0 2.68555 1.85547 4.58984 4.44336 4.58984 2.68555 0 4.54102-1.85547 4.54102-4.58984v-19.7754h19.7754c2.68555 0 4.58984-1.80664 4.58984-4.39453 0-2.73438-1.85547-4.58984-4.58984-4.58984h-19.7754v-19.7266c0-2.73438-1.85547-4.63867-4.54102-4.63867-2.58789 0-4.44336 1.9043-4.44336 4.63867v19.7266h-19.7266c-2.73438 0-4.58984 1.85547-4.58984 4.58984Z"/>
  </g>
  <text style="stroke:none;fill:black;font-family:sans-serif;font-size:13;font-weight:bold;" transform="matrix(1 0 0 1 263 1953)">Design Variations</text>
  <text style="stroke:none;fill:black;font-family:sans-serif;font-size:13;" transform="matrix(1 0 0 1 263 1971)">Symbols are supported in up to nine weights and three scales.</text>
  <text style="stroke:none;fill:black;font-family:sans-serif;font-size:13;" transform="matrix(1 0 0 1 263 1989)">For optimal layout with text and other symbols, vertically align</text>
  <text style="stroke:none;fill:black;font-family:sans-serif;font-size:13;" transform="matrix(1 0 0 1 263 2007)">symbols with the adjacent text.</text>
  <line style="fill:none;stroke:#00AEEF;stroke-width:0.5;opacity:1.0;" x1="776" x2="776" y1="1919" y2="1933"/>
  <g transform="matrix(0.2 0 0 0.2 776 1933)">
   <path d="m16.5527 0.78125c2.58789 0 3.85742-0.976562 4.78516-3.71094l6.29883-17.2363h28.8086l6.29883 17.2363c0.927734 2.73438 2.19727 3.71094 4.73633 3.71094 2.58789 0 4.24805-1.5625 4.24805-4.00391 0-0.830078-0.146484-1.61133-0.537109-2.63672l-22.9004-60.9863c-1.12305-2.97852-3.125-4.49219-6.25-4.49219-3.02734 0-5.07812 1.46484-6.15234 4.44336l-22.9004 61.084c-0.390625 1.02539-0.537109 1.80664-0.537109 2.63672 0 2.44141 1.5625 3.95508 4.10156 3.95508Zm13.4766-28.3691 11.8652-32.8613h0.244141l11.8652 32.8613Z"/>
  </g>
  <line style="fill:none;stroke:#00AEEF;stroke-width:0.5;opacity:1.0;" x1="792.836" x2="792.836" y1="1919" y2="1933"/>
  <text style="stroke:none;fill:black;font-family:sans-serif;font-size:13;font-weight:bold;" transform="matrix(1 0 0 1 776 1953)">Margins</text>
  <text style="stroke:none;fill:black;font-family:sans-serif;font-size:13;" transform="matrix(1 0 0 1 776 1971)">Leading and trailing margins on the left and right side of each symbol</text>
  <text style="stroke:none;fill:black;font-family:sans-serif;font-size:13;" transform="matrix(1 0 0 1 776 1989)">can be adjusted by modifying the x-location of the margin guidelines.</text>
  <text style="stroke:none;fill:black;font-family:sans-serif;font-size:13;" transform="matrix(1 0 0 1 776 2007)">Modifications are automatically applied proportionally to all</text>
  <text style="stroke:none;fill:black;font-family:sans-serif;font-size:13;" transform="matrix(1 0 0 1 776 2025)">scales and weights.</text>
  <g transform="matrix(0.2 0 0 0.2 1289 1933)">
   <path d="m14.209 9.32617 8.49609 8.54492c4.29688 4.3457 9.22852 4.05273 13.8672-1.07422l53.4668-58.9355-4.83398-4.88281-53.0762 58.3984c-1.75781 2.00195-3.41797 2.49023-5.76172 0.146484l-5.85938-5.81055c-2.34375-2.29492-1.80664-4.00391 0.195312-5.81055l57.373-54.0039-4.88281-4.83398-57.959 54.4434c-4.93164 4.58984-5.32227 9.47266-1.02539 13.8184Zm32.0801-90.9668c-2.09961 2.05078-2.24609 4.93164-1.07422 6.88477 1.17188 1.80664 3.4668 2.97852 6.68945 2.14844 7.32422-1.70898 14.9414-2.00195 22.0703 2.68555l-2.92969 7.27539c-1.70898 4.15039-0.830078 7.08008 1.85547 9.81445l11.4746 11.5723c2.44141 2.44141 4.49219 2.53906 7.32422 2.05078l5.32227-0.976562 3.32031 3.36914-0.195312 2.7832c-0.195312 2.49023 0.439453 4.39453 2.88086 6.78711l3.80859 3.71094c2.39258 2.39258 5.46875 2.53906 7.8125 0.195312l14.5508-14.5996c2.34375-2.34375 2.24609-5.32227-0.146484-7.71484l-3.85742-3.80859c-2.39258-2.39258-4.24805-3.17383-6.64062-2.97852l-2.88086 0.244141-3.22266-3.17383 1.2207-5.61523c0.634766-2.83203-0.146484-5.0293-3.07617-7.95898l-10.9863-10.9375c-16.6992-16.6016-38.8672-16.2109-53.3203-1.75781Zm7.4707 1.85547c12.1582-8.88672 28.6133-7.37305 39.7461 3.75977l12.1582 12.0605c1.17188 1.17188 1.36719 2.09961 1.02539 3.80859l-1.61133 7.42188 7.51953 7.42188 4.93164-0.292969c1.26953-0.0488281 1.66016 0.0488281 2.63672 1.02539l2.88086 2.88086-12.207 12.207-2.88086-2.88086c-0.976562-0.976562-1.12305-1.36719-1.07422-2.68555l0.341797-4.88281-7.4707-7.42188-7.61719 1.26953c-1.61133 0.341797-2.34375 0.195312-3.56445-0.976562l-10.0098-10.0098c-1.26953-1.17188-1.41602-2.00195-0.634766-3.85742l4.39453-10.4492c-7.8125-7.27539-17.9688-10.4004-28.125-7.42188-0.78125 0.195312-1.07422-0.439453-0.439453-0.976562Z"/>
  </g>
  <text style="stroke:none;fill:black;font-family:sans-serif;font-size:13;font-weight:bold;" transform="matrix(1 0 0 1 1289 1953)">Exporting</text>
  <text style="stroke:none;fill:black;font-family:sans-serif;font-size:13;" transform="matrix(1 0 0 1 1289 1971)">Symbols should be outlined when exporting to ensure the</text>
  <text style="stroke:none;fill:black;font-family:sans-serif;font-size:13;" transform="matrix(1 0 0 1 1289 1989)">design is preserved when submitting to Xcode.</text>
  <text id="template-version" style="stroke:none;fill:black;font-family:sans-serif;font-size:13;text-anchor:end;" transform="matrix(1 0 0 1 3036 1933)">Template v.5.0</text>
  <text style="stroke:none;fill:black;font-family:sans-serif;font-size:13;text-anchor:end;" transform="matrix(1 0 0 1 3036 1951)">Requires Xcode 15 or greater</text>
  <text id="descriptive-name" style="stroke:none;fill:black;font-family:sans-serif;font-size:13;text-anchor:end;" transform="matrix(1 0 0 1 3036 1969)">Generated from custom.camera.dual+</text>
  <text style="stroke:none;fill:black;font-family:sans-serif;font-size:13;text-anchor:end;" transform="matrix(1 0 0 1 3036 1987)">Typeset at 100.0 points</text>
  <text style="stroke:none;fill:black;font-family:sans-serif;font-size:13;" transform="matrix(1 0 0 1 263 726)">Small</text>
  <text style="stroke:none;fill:black;font-family:sans-serif;font-size:13;" transform="matrix(1 0 0 1 263 1156)">Medium</text>
  <text style="stroke:none;fill:black;font-family:sans-serif;font-size:13;" transform="matrix(1 0 0 1 263 1586)">Large</text>
 </g>
 <g id="Guides">
  <g id="H-reference" style="fill:#27AAE1;stroke:none;" transform="matrix(1 0 0 1 339 696)">
   <path d="M0.993654 0L3.63775 0L29.3281-67.1323L30.0303-67.1323L30.0303-70.459L28.1226-70.459ZM11.6885-24.4799L46.9815-24.4799L46.2315-26.7285L12.4385-26.7285ZM55.1196 0L57.7637 0L30.6382-70.459L29.4326-70.459L29.4326-67.1323Z"/>
  </g>
  <line id="Baseline-S" style="fill:none;stroke:#27AAE1;opacity:1;stroke-width:0.5;" x1="263" x2="3036" y1="696" y2="696"/>
  <line id="Capline-S" style="fill:none;stroke:#27AAE1;opacity:1;stroke-width:0.5;" x1="263" x2="3036" y1="625.541" y2="625.541"/>
  <g id="H-reference" style="fill:#27AAE1;stroke:none;" transform="matrix(1 0 0 1 339 1126)">
   <path d="M0.993654 0L3.63775 0L29.3281-67.1323L30.0303-67.1323L30.0303-70.459L28.1226-70.459ZM11.6885-24.4799L46.9815-24.4799L46.2315-26.7285L12.4385-26.7285ZM55.1196 0L57.7637 0L30.6382-70.459L29.4326-70.459L29.4326-67.1323Z"/>
  </g>
  <line id="Baseline-M" style="fill:none;stroke:#27AAE1;opacity:1;stroke-width:0.5;" x1="263" x2="3036" y1="1126" y2="1126"/>
  <line id="Capline-M" style="fill:none;stroke:#27AAE1;opacity:1;stroke-width:0.5;" x1="263" x2="3036" y1="1055.54" y2="1055.54"/>
  <g id="H-reference" style="fill:#27AAE1;stroke:none;" transform="matrix(1 0 0 1 339 1556)">
   <path d="M0.993654 0L3.63775 0L29.3281-67.1323L30.0303-67.1323L30.0303-70.459L28.1226-70.459ZM11.6885-24.4799L46.9815-24.4799L46.2315-26.7285L12.4385-26.7285ZM55.1196 0L57.7637 0L30.6382-70.459L29.4326-70.459L29.4326-67.1323Z"/>
  </g>
  <line id="Baseline-L" style="fill:none;stroke:#27AAE1;opacity:1;stroke-width:0.5;" x1="263" x2="3036" y1="1556" y2="1556"/>
  <line id="Capline-L" style="fill:none;stroke:#27AAE1;opacity:1;stroke-width:0.5;" x1="263" x2="3036" y1="1485.54" y2="1485.54"/>
  <line id="right-margin-Black-S" style="fill:none;stroke:#00AEEF;stroke-width:0.5;opacity:1.0;" x1="2998.09" x2="2998.09" y1="600.785" y2="720.121"/>
  <line id="left-margin-Black-S" style="fill:none;stroke:#00AEEF;stroke-width:0.5;opacity:1.0;" x1="2868.71" x2="2868.71" y1="600.785" y2="720.121"/>
  <line id="right-margin-Regular-S" style="fill:none;stroke:#00AEEF;stroke-width:0.5;opacity:1.0;" x1="1510.22" x2="1510.22" y1="600.785" y2="720.121"/>
  <line id="left-margin-Regular-S" style="fill:none;stroke:#00AEEF;stroke-width:0.5;opacity:1.0;" x1="1389.47" x2="1389.47" y1="600.785" y2="720.121"/>
  <line id="right-margin-Ultralight-S" style="fill:none;stroke:#00AEEF;stroke-width:0.5;opacity:1.0;" x1="617.211" x2="617.211" y1="600.785" y2="720.121"/>
  <line id="left-margin-Ultralight-S" style="fill:none;stroke:#00AEEF;stroke-width:0.5;opacity:1.0;" x1="502.211" x2="502.211" y1="600.785" y2="720.121"/>
 </g>
 <g id="Symbols">
  <g id="Black-S" transform="matrix(1 0 0 1 2868.71 696)">
   <path class="monochrome-0 multicolor-0:tintColor hierarchical-0:secondary SFSymbolsPreviewWireframe" d="M63.3932-78.2815C67.9489-78.2815 72.3175-76.4715 75.5389-73.2503L78.8575-69.9036C81.7109-66.7524 83.302-62.6439 83.302-58.3727L83.302-23.7295C83.302-14.2423 75.6094-6.5525 66.1222-6.5525L27.3125-6.5525C17.8256-6.5528 10.1355-14.2425 10.1355-23.7295L10.1355-52.3419C10.1355-61.8289 17.8256-69.5214 27.3125-69.5217L29.2947-69.5217C30.0059-69.5217 30.6955-69.7792 31.2319-70.2461L36.207-74.5558C39.2391-76.9644 43.0053-78.2814 46.8928-78.2815L63.3932-78.2815ZM46.8928-64.0525C46.2707-64.0524 45.6666-63.8529 45.1661-63.491L40.5757-59.5126C37.4485-56.7898 33.4411-55.2899 29.2947-55.2899L27.3125-55.2899C25.6853-55.2896 24.3645-53.9692 24.3645-52.3419L24.3645-23.7295C24.3645-22.1022 25.6853-20.7819 27.3125-20.7815L66.1222-20.7815C67.7497-20.7815 69.0702-22.102 69.0702-23.7295L69.0702-58.3727C69.0702-59.057 68.8322-59.718 68.402-60.2426L65.4764-63.1878C64.9239-63.7402 64.1746-64.0525 63.3932-64.0525L46.8928-64.0525Z"/>
   <path class="monochrome-2 multicolor-2:tintColor hierarchical-2:primary SFSymbolsPreviewWireframe" d="M75.4688-40.2607C84.5987-40.2607 92-32.8595 92-23.7295C92-14.5995 84.5987-7.1983 75.4688-7.1983C66.3388-7.1983 58.9375-14.5995 58.9375-23.7295C58.9375-32.8595 66.3388-40.2607 75.4688-40.2607ZM75.4688-30.1983C71.8962-30.1983 69-27.3021 69-23.7295C69-20.1569 71.8962-17.2607 75.4688-17.2607C79.0413-17.2607 81.9375-20.1569 81.9375-23.7295C81.9375-27.3021 79.0413-30.1983 75.4688-30.1983ZM96.3125-39.542C98.6942-39.542 100.625-37.6112 100.625-35.2295C100.625-32.8478 98.6942-30.917 96.3125-30.917C93.9308-30.917 92-32.8478 92-35.2295C92-37.6112 93.9308-39.542 96.3125-39.542Z"/>
   <path class="monochrome-1 monochrome-2 multicolor-1:tintColor multicolor-2:tintColor hierarchical-1:primary hierarchical-2:primary SFSymbolsPreviewWireframe" d="M81.4574-65.3468C85.1736-65.3468 88.791-64.1425 91.7642-61.9131L98.334-57.0335C98.7471-56.8162 99.2076-56.698 99.6788-56.6937L103.09-56.6432C112.108-56.1102 119.239-48.6283 119.24-39.4943L119.24-7.9198C119.24 1.5674 111.55 9.2572 102.062 9.2572L48.875 9.2572C39.3878 9.2572 31.698 1.5674 31.698-7.9198L31.698-39.4072C31.6984-48.8941 39.3881-56.587 48.875-56.587L51.2278-56.587C51.8726-56.587 52.5004-56.7973 53.0134-57.1879L59.6787-62.25C62.5595-64.2638 65.9961-65.3468 69.5222-65.3468L81.4574-65.3468Z"/>
   <path class="monochrome-2 multicolor-2:tintColor hierarchical-2:primary SFSymbolsPreviewWireframe" d="M69.5222-51.1178C69.0384-51.1178 68.564-50.9969 68.1409-50.7725L61.6384-45.8676C58.6467-43.5885 54.9887-42.3552 51.2278-42.3552L48.875-42.3552C47.2478-42.3552 45.9275-41.0344 45.927-39.4072L45.927-7.9198C45.927-6.2923 47.2475-4.9718 48.875-4.9718L102.062-4.9718C103.69-4.9718 105.01-6.2923 105.01-7.9198L105.01-39.4943C105.01-41.1115 103.705-42.4283 102.088-42.4423L99.5553-42.4647C95.8899-42.4967 92.3298-43.6991 89.3973-45.8984L83.2262-50.5282C82.7163-50.9103 82.0946-51.1178 81.4574-51.1178L69.5222-51.1178Z"/>
  </g>
  <g id="Regular-S" transform="matrix(1 0 0 1 1389.47 696)">
   <path class="monochrome-0 multicolor-0:tintColor hierarchical-0:secondary SFSymbolsPreviewWireframe" d="M56.2057-74.6878C59.8082-74.6875 63.266-73.2567 65.8134-70.7094L69.379-67.1212C71.396-64.8934 72.5204-61.9902 72.5208-58.9707L72.5208-22.292C72.5208-15.5837 67.0832-10.1467 60.375-10.1462L23-10.1462C16.2915-10.1462 10.8542-15.5835 10.8542-22.292L10.8542-53.7794C10.8542-60.488 16.2915-65.928 23-65.928L28.0116-65.928C29.3787-65.9282 30.6912-66.4754 31.6503-67.4497L35.2721-71.108C37.7724-73.4057 41.0521-74.6877 44.4642-74.6878L56.2057-74.6878ZM44.4642-67.6462C42.9309-67.6462 41.4526-67.107 40.2837-66.1357L36.6703-62.5083C34.3872-60.189 31.266-58.8839 28.0116-58.8837L23-58.8837C20.1816-58.8837 17.8958-56.5978 17.8958-53.7794L17.8958-22.292C17.8958-19.4736 20.1816-17.1878 23-17.1878L60.375-17.1878C63.193-17.1882 65.4792-19.4739 65.4792-22.292L65.4792-58.9707C65.4789-60.154 65.0657-61.2947 64.3225-62.2023L60.8326-65.7286C59.6062-66.9551 57.9401-67.646 56.2057-67.6462L44.4642-67.6462Z"/>
   <path class="monochrome-2 multicolor-2:tintColor hierarchical-2:primary SFSymbolsPreviewWireframe" d="M70.4403-43.3126C80.7891-43.3111 89.1783-34.921 89.1783-24.5718C89.1776-14.2232 80.7887-5.8353 70.4403-5.8337C60.0906-5.8337 51.7002-14.2223 51.6995-24.5718C51.6995-34.9219 60.0902-43.3126 70.4403-43.3126ZM70.4403-36.2711C63.9803-36.2711 58.741-31.0318 58.741-24.5718C58.7417-18.1125 63.9808-12.8753 70.4403-12.8753C76.8985-12.8768 82.1361-18.1134 82.1368-24.5718C82.1368-31.0308 76.899-36.2696 70.4403-36.2711ZM95.0996-42.198C97.4807-42.1972 99.4121-40.2668 99.4121-37.8855C99.4121-35.5042 97.4807-33.5738 95.0996-33.573C92.7179-33.573 90.7871-35.5038 90.7871-37.8855C90.7871-40.2672 92.7179-42.198 95.0996-42.198Z"/>
   <path class="monochrome-1 monochrome-2 multicolor-1:tintColor multicolor-2:tintColor hierarchical-1:primary hierarchical-2:primary SFSymbolsPreviewWireframe" d="M76.3307-61.7531C79.9333-61.7531 83.3908-60.322 85.9384-57.7747L89.4872-54.2595C90.3852-53.5221 91.5132-53.1094 92.6851-53.1L97.8455-53.0607C104.515-53.0077 109.895-47.5848 109.896-40.9149L109.896-6.4823C109.896 0.2262 104.459 5.6634 97.75 5.6634L43.125 5.6634C36.4165 5.6634 30.9792 0.2262 30.9792-6.4823L30.9792-40.8447C30.9797-47.5529 36.4167-52.9933 43.125-52.9933L48.1366-52.9933C49.504-52.9933 50.816-53.5406 51.7753-54.515L55.3971-58.1733C57.8974-60.471 61.1771-61.753 64.5892-61.7531L76.3307-61.7531Z"/>
   <path class="monochrome-2 multicolor-2:tintColor hierarchical-2:primary SFSymbolsPreviewWireframe" d="M64.5892-54.7116C63.0559-54.7115 61.5776-54.1723 60.4087-53.2011L56.7953-49.5736C54.5121-47.2541 51.3913-45.949 48.1366-45.949L43.125-45.949C40.3069-45.949 38.0212-43.6627 38.0208-40.8447L38.0208-6.4823C38.0208-3.6639 40.3066-1.3781 43.125-1.3781L97.75-1.3781C100.568-1.3781 102.854-3.6639 102.854-6.4823L102.854-40.9149C102.853-43.7165 100.591-45.9941 97.7893-46.0164L92.6289-46.0585C89.6404-46.0823 86.7724-47.2052 84.5682-49.203L80.9576-52.794C79.7311-54.0203 78.0652-54.7116 76.3307-54.7116L64.5892-54.7116Z"/>
  </g>
  <g id="Ultralight-S" transform="matrix(1 0 0 1 502.211 696)">
   <path class="monochrome-0 multicolor-0:tintColor hierarchical-0:secondary SFSymbolsPreviewWireframe" d="M54.5239-72.3181C56.7341-72.3176 58.854-71.4381 60.4171-69.8755L65.3866-64.8499C66.6022-63.3665 67.2759-61.5005 67.2761-59.5659L67.2761-20.8545C67.2761-16.2501 63.5418-12.5163 58.9375-12.5159L18.6875-12.5159C14.0828-12.5159 10.3489-16.2498 10.3489-20.8545L10.3489-55.2169C10.3489-59.8216 14.0828-63.5555 18.6875-63.5555L25.7402-63.5555C27.3575-63.5559 28.907-64.2055 30.0415-65.358L35.0559-70.3921C36.546-71.6304 38.43-72.318 40.3848-72.3181L54.5239-72.3181ZM40.3848-70.0159C38.9697-70.0157 37.606-69.5195 36.5271-68.6233L31.6812-63.7437C30.1143-62.152 27.9737-61.2565 25.7402-61.2561L18.6875-61.2561C15.3531-61.2561 12.6511-58.5513 12.6511-55.2169L12.6511-20.8545C12.6511-17.5201 15.3531-14.8181 18.6875-14.8181L58.9375-14.8181C62.2716-14.8185 64.9739-17.5203 64.9739-20.8545L64.9739-59.5659C64.9736-60.9664 64.4863-62.3159 63.6066-63.3899L58.7915-68.2499C57.6598-69.3812 56.1241-70.0154 54.5239-70.0159L40.3848-70.0159Z"/>
   <path class="monochrome-2 multicolor-2:tintColor hierarchical-2:primary SFSymbolsPreviewWireframe" d="M67.5625-46.4431C78.1215-46.4431 86.6824-37.8822 86.6824-27.3233C86.6824-16.7643 78.1215-8.2034 67.5625-8.2034C57.0035-8.2034 48.4426-16.7643 48.4426-27.3233C48.4426-37.8822 57.0035-46.4431 67.5625-46.4431ZM67.5625-44.1409C58.2738-44.1409 50.7449-36.612 50.7449-27.3233C50.7449-18.0345 58.2738-10.5056 67.5625-10.5056C76.8512-10.5056 84.3801-18.0345 84.3801-27.3233C84.3801-36.612 76.8512-44.1409 67.5625-44.1409ZM92.2246-44.9354C94.4094-44.9347 96.1802-43.1644 96.1805-40.9795C96.1805-38.7944 94.4095-37.0215 92.2246-37.0208C90.039-37.0208 88.2659-38.7939 88.2659-40.9795C88.2662-43.1648 90.0392-44.9354 92.2246-44.9354Z"/>
   <path class="monochrome-1 monochrome-2 multicolor-1:tintColor multicolor-2:tintColor hierarchical-1:primary hierarchical-2:primary SFSymbolsPreviewWireframe" d="M74.6489-60.8181C76.8594-60.8178 78.9789-59.9383 80.5421-58.3755L85.4189-53.5408C86.4816-52.6679 87.8166-52.1789 89.2036-52.1679L96.3799-52.1117C100.958-52.0747 104.651-48.3515 104.651-43.7731L104.651-6.4795C104.651-1.8748 100.917 1.8591 96.3125 1.8591L38.8125 1.8591C34.2078 1.8591 30.4739-1.8748 30.4739-6.4795L30.4739-43.7169C30.4739-48.3216 34.2078-52.0555 38.8125-52.0555L45.8652-52.0555C47.4827-52.0557 49.0318-52.7053 50.1665-53.858L55.1809-58.8921C56.6711-60.1306 58.5548-60.818 60.5098-60.8181L74.6489-60.8181Z"/>
   <path class="monochrome-2 multicolor-2:tintColor hierarchical-2:primary SFSymbolsPreviewWireframe" d="M60.5098-58.5159C59.0945-58.5157 57.731-58.0198 56.6521-57.1233L51.8062-52.2437C50.2391-50.6518 48.099-49.7563 45.8652-49.7561L38.8125-49.7561C35.4781-49.7561 32.7761-47.0513 32.7761-43.7169L32.7761-6.4795C32.7761-3.1451 35.4781-0.4431 38.8125-0.4431L96.3125-0.4431C99.6469-0.4431 102.349-3.1451 102.349-6.4795L102.349-43.7731C102.349-47.0888 99.6758-49.7859 96.3602-49.8123L89.184-49.8684C87.2694-49.8838 85.4261-50.5561 83.959-51.7607L78.9165-56.7499C77.7846-57.8813 76.2494-58.5156 74.6489-58.5159L60.5098-58.5159Z"/>
  </g>
 </g>
</svg>
