<?xml version="1.0" encoding="UTF-8"?>
<!--Generator: Apple Native CoreSVG 341-->
<!DOCTYPE svg
PUBLIC "-//W3C//DTD SVG 1.1//EN"
       "http://www.w3.org/Graphics/SVG/1.1/DTD/svg11.dtd">
<svg version="1.1" xmlns="http://www.w3.org/2000/svg" xmlns:xlink="http://www.w3.org/1999/xlink" viewBox="0 0 3300 2200">
 <!--glyph: "", point size: 100.0, font version: "20.0d10e1", template writer version: "138.0.0"-->
 <style>.monochrome-0 {}
.monochrome-1 {}

.multicolor-0:tintColor {}
.multicolor-1:tintColor {}

.hierarchical-0:secondary {}
.hierarchical-1:primary {}

.SFSymbolsPreview007AFF {fill:#007AFF;opacity:1.0}
</style>
 <g id="Notes">
  <rect height="2200" id="artboard" style="fill:white;opacity:1" width="3300" x="0" y="0"/>
  <line style="fill:none;stroke:black;opacity:1;stroke-width:0.5;" x1="263" x2="3036" y1="292" y2="292"/>
  <text style="stroke:none;fill:black;font-family:sans-serif;font-size:13;font-weight:bold;" transform="matrix(1 0 0 1 263 322)">Weight/Scale Variations</text>
  <text style="stroke:none;fill:black;font-family:sans-serif;font-size:13;text-anchor:middle;" transform="matrix(1 0 0 1 559.711 322)">Ultralight</text>
  <text style="stroke:none;fill:black;font-family:sans-serif;font-size:13;text-anchor:middle;" transform="matrix(1 0 0 1 856.422 322)">Thin</text>
  <text style="stroke:none;fill:black;font-family:sans-serif;font-size:13;text-anchor:middle;" transform="matrix(1 0 0 1 1153.13 322)">Light</text>
  <text style="stroke:none;fill:black;font-family:sans-serif;font-size:13;text-anchor:middle;" transform="matrix(1 0 0 1 1449.84 322)">Regular</text>
  <text style="stroke:none;fill:black;font-family:sans-serif;font-size:13;text-anchor:middle;" transform="matrix(1 0 0 1 1746.56 322)">Medium</text>
  <text style="stroke:none;fill:black;font-family:sans-serif;font-size:13;text-anchor:middle;" transform="matrix(1 0 0 1 2043.27 322)">Semibold</text>
  <text style="stroke:none;fill:black;font-family:sans-serif;font-size:13;text-anchor:middle;" transform="matrix(1 0 0 1 2339.98 322)">Bold</text>
  <text style="stroke:none;fill:black;font-family:sans-serif;font-size:13;text-anchor:middle;" transform="matrix(1 0 0 1 2636.69 322)">Heavy</text>
  <text style="stroke:none;fill:black;font-family:sans-serif;font-size:13;text-anchor:middle;" transform="matrix(1 0 0 1 2933.4 322)">Black</text>
  <line style="fill:none;stroke:black;opacity:1;stroke-width:0.5;" x1="263" x2="3036" y1="1903" y2="1903"/>
  <g transform="matrix(0.2 0 0 0.2 263 1933)">
   <path d="m46.2402 4.15039c21.7773 0 39.4531-17.627 39.4531-39.4043s-17.6758-39.4043-39.4531-39.4043c-21.7285 0-39.4043 17.627-39.4043 39.4043s17.6758 39.4043 39.4043 39.4043Zm0-7.42188c-17.6758 0-31.9336-14.3066-31.9336-31.9824s14.2578-31.9824 31.9336-31.9824 31.9824 14.3066 31.9824 31.9824-14.3066 31.9824-31.9824 31.9824Zm-17.9688-31.9824c0 2.14844 1.51367 3.61328 3.75977 3.61328h10.498v10.5957c0 2.19727 1.46484 3.71094 3.61328 3.71094 2.24609 0 3.71094-1.51367 3.71094-3.71094v-10.5957h10.5957c2.19727 0 3.71094-1.46484 3.71094-3.61328 0-2.19727-1.51367-3.71094-3.71094-3.71094h-10.5957v-10.5469c0-2.24609-1.46484-3.75977-3.71094-3.75977-2.14844 0-3.61328 1.51367-3.61328 3.75977v10.5469h-10.498c-2.24609 0-3.75977 1.51367-3.75977 3.71094Z"/>
  </g>
  <g transform="matrix(0.2 0 0 0.2 281.506 1933)">
   <path d="m58.5449 14.5508c27.4902 0 49.8047-22.3145 49.8047-49.8047s-22.3145-49.8047-49.8047-49.8047-49.8047 22.3145-49.8047 49.8047 22.3145 49.8047 49.8047 49.8047Zm0-8.30078c-22.9492 0-41.5039-18.5547-41.5039-41.5039s18.5547-41.5039 41.5039-41.5039 41.5039 18.5547 41.5039 41.5039-18.5547 41.5039-41.5039 41.5039Zm-22.6562-41.5039c0 2.39258 1.66016 4.00391 4.15039 4.00391h14.3555v14.4043c0 2.44141 1.66016 4.15039 4.05273 4.15039 2.44141 0 4.15039-1.66016 4.15039-4.15039v-14.4043h14.4043c2.44141 0 4.15039-1.61133 4.15039-4.00391 0-2.44141-1.70898-4.15039-4.15039-4.15039h-14.4043v-14.3555c0-2.49023-1.70898-4.19922-4.15039-4.19922-2.39258 0-4.05273 1.70898-4.05273 4.19922v14.3555h-14.3555c-2.49023 0-4.15039 1.70898-4.15039 4.15039Z"/>
  </g>
  <g transform="matrix(0.2 0 0 0.2 304.924 1933)">
   <path d="m74.8535 28.3203c35.1074 0 63.623-28.4668 63.623-63.5742s-28.5156-63.623-63.623-63.623-63.5742 28.5156-63.5742 63.623 28.4668 63.5742 63.5742 63.5742Zm0-9.08203c-30.127 0-54.4922-24.3652-54.4922-54.4922s24.3652-54.4922 54.4922-54.4922 54.4922 24.3652 54.4922 54.4922-24.3652 54.4922-54.4922 54.4922Zm-28.8574-54.4922c0 2.58789 1.85547 4.39453 4.58984 4.39453h19.7266v19.7754c0 2.68555 1.85547 4.58984 4.44336 4.58984 2.68555 0 4.54102-1.85547 4.54102-4.58984v-19.7754h19.7754c2.68555 0 4.58984-1.80664 4.58984-4.39453 0-2.73438-1.85547-4.58984-4.58984-4.58984h-19.7754v-19.7266c0-2.73438-1.85547-4.63867-4.54102-4.63867-2.58789 0-4.44336 1.9043-4.44336 4.63867v19.7266h-19.7266c-2.73438 0-4.58984 1.85547-4.58984 4.58984Z"/>
  </g>
  <text style="stroke:none;fill:black;font-family:sans-serif;font-size:13;font-weight:bold;" transform="matrix(1 0 0 1 263 1953)">Design Variations</text>
  <text style="stroke:none;fill:black;font-family:sans-serif;font-size:13;" transform="matrix(1 0 0 1 263 1971)">Symbols are supported in up to nine weights and three scales.</text>
  <text style="stroke:none;fill:black;font-family:sans-serif;font-size:13;" transform="matrix(1 0 0 1 263 1989)">For optimal layout with text and other symbols, vertically align</text>
  <text style="stroke:none;fill:black;font-family:sans-serif;font-size:13;" transform="matrix(1 0 0 1 263 2007)">symbols with the adjacent text.</text>
  <line style="fill:none;stroke:#00AEEF;stroke-width:0.5;opacity:1.0;" x1="776" x2="776" y1="1919" y2="1933"/>
  <g transform="matrix(0.2 0 0 0.2 776 1933)">
   <path d="m16.5527 0.78125c2.58789 0 3.85742-0.976562 4.78516-3.71094l6.29883-17.2363h28.8086l6.29883 17.2363c0.927734 2.73438 2.19727 3.71094 4.73633 3.71094 2.58789 0 4.24805-1.5625 4.24805-4.00391 0-0.830078-0.146484-1.61133-0.537109-2.63672l-22.9004-60.9863c-1.12305-2.97852-3.125-4.49219-6.25-4.49219-3.02734 0-5.07812 1.46484-6.15234 4.44336l-22.9004 61.084c-0.390625 1.02539-0.537109 1.80664-0.537109 2.63672 0 2.44141 1.5625 3.95508 4.10156 3.95508Zm13.4766-28.3691 11.8652-32.8613h0.244141l11.8652 32.8613Z"/>
  </g>
  <line style="fill:none;stroke:#00AEEF;stroke-width:0.5;opacity:1.0;" x1="792.836" x2="792.836" y1="1919" y2="1933"/>
  <text style="stroke:none;fill:black;font-family:sans-serif;font-size:13;font-weight:bold;" transform="matrix(1 0 0 1 776 1953)">Margins</text>
  <text style="stroke:none;fill:black;font-family:sans-serif;font-size:13;" transform="matrix(1 0 0 1 776 1971)">Leading and trailing margins on the left and right side of each symbol</text>
  <text style="stroke:none;fill:black;font-family:sans-serif;font-size:13;" transform="matrix(1 0 0 1 776 1989)">can be adjusted by modifying the x-location of the margin guidelines.</text>
  <text style="stroke:none;fill:black;font-family:sans-serif;font-size:13;" transform="matrix(1 0 0 1 776 2007)">Modifications are automatically applied proportionally to all</text>
  <text style="stroke:none;fill:black;font-family:sans-serif;font-size:13;" transform="matrix(1 0 0 1 776 2025)">scales and weights.</text>
  <g transform="matrix(0.2 0 0 0.2 1289 1933)">
   <path d="m14.209 9.32617 8.49609 8.54492c4.29688 4.3457 9.22852 4.05273 13.8672-1.07422l53.4668-58.9355-4.83398-4.88281-53.0762 58.3984c-1.75781 2.00195-3.41797 2.49023-5.76172 0.146484l-5.85938-5.81055c-2.34375-2.29492-1.80664-4.00391 0.195312-5.81055l57.373-54.0039-4.88281-4.83398-57.959 54.4434c-4.93164 4.58984-5.32227 9.47266-1.02539 13.8184Zm32.0801-90.9668c-2.09961 2.05078-2.24609 4.93164-1.07422 6.88477 1.17188 1.80664 3.4668 2.97852 6.68945 2.14844 7.32422-1.70898 14.9414-2.00195 22.0703 2.68555l-2.92969 7.27539c-1.70898 4.15039-0.830078 7.08008 1.85547 9.81445l11.4746 11.5723c2.44141 2.44141 4.49219 2.53906 7.32422 2.05078l5.32227-0.976562 3.32031 3.36914-0.195312 2.7832c-0.195312 2.49023 0.439453 4.39453 2.88086 6.78711l3.80859 3.71094c2.39258 2.39258 5.46875 2.53906 7.8125 0.195312l14.5508-14.5996c2.34375-2.34375 2.24609-5.32227-0.146484-7.71484l-3.85742-3.80859c-2.39258-2.39258-4.24805-3.17383-6.64062-2.97852l-2.88086 0.244141-3.22266-3.17383 1.2207-5.61523c0.634766-2.83203-0.146484-5.0293-3.07617-7.95898l-10.9863-10.9375c-16.6992-16.6016-38.8672-16.2109-53.3203-1.75781Zm7.4707 1.85547c12.1582-8.88672 28.6133-7.37305 39.7461 3.75977l12.1582 12.0605c1.17188 1.17188 1.36719 2.09961 1.02539 3.80859l-1.61133 7.42188 7.51953 7.42188 4.93164-0.292969c1.26953-0.0488281 1.66016 0.0488281 2.63672 1.02539l2.88086 2.88086-12.207 12.207-2.88086-2.88086c-0.976562-0.976562-1.12305-1.36719-1.07422-2.68555l0.341797-4.88281-7.4707-7.42188-7.61719 1.26953c-1.61133 0.341797-2.34375 0.195312-3.56445-0.976562l-10.0098-10.0098c-1.26953-1.17188-1.41602-2.00195-0.634766-3.85742l4.39453-10.4492c-7.8125-7.27539-17.9688-10.4004-28.125-7.42188-0.78125 0.195312-1.07422-0.439453-0.439453-0.976562Z"/>
  </g>
  <text style="stroke:none;fill:black;font-family:sans-serif;font-size:13;font-weight:bold;" transform="matrix(1 0 0 1 1289 1953)">Exporting</text>
  <text style="stroke:none;fill:black;font-family:sans-serif;font-size:13;" transform="matrix(1 0 0 1 1289 1971)">Symbols should be outlined when exporting to ensure the</text>
  <text style="stroke:none;fill:black;font-family:sans-serif;font-size:13;" transform="matrix(1 0 0 1 1289 1989)">design is preserved when submitting to Xcode.</text>
  <text id="template-version" style="stroke:none;fill:black;font-family:sans-serif;font-size:13;text-anchor:end;" transform="matrix(1 0 0 1 3036 1933)">Template v.4.0</text>
  <text style="stroke:none;fill:black;font-family:sans-serif;font-size:13;text-anchor:end;" transform="matrix(1 0 0 1 3036 1951)">Requires Xcode 14 or greater</text>
  <text id="descriptive-name" style="stroke:none;fill:black;font-family:sans-serif;font-size:13;text-anchor:end;" transform="matrix(1 0 0 1 3036 1969)">Generated from custom.group.enter</text>
  <text style="stroke:none;fill:black;font-family:sans-serif;font-size:13;text-anchor:end;" transform="matrix(1 0 0 1 3036 1987)">Typeset at 100.0 points</text>
  <text style="stroke:none;fill:black;font-family:sans-serif;font-size:13;" transform="matrix(1 0 0 1 263 726)">Small</text>
  <text style="stroke:none;fill:black;font-family:sans-serif;font-size:13;" transform="matrix(1 0 0 1 263 1156)">Medium</text>
  <text style="stroke:none;fill:black;font-family:sans-serif;font-size:13;" transform="matrix(1 0 0 1 263 1586)">Large</text>
 </g>
 <g id="Guides">
  <g id="H-reference" style="fill:#27AAE1;stroke:none;" transform="matrix(1 0 0 1 339 696)">
   <path d="M0.993654 0L3.63775 0L29.3281-67.1323L30.0303-67.1323L30.0303-70.459L28.1226-70.459ZM11.6885-24.4799L46.9815-24.4799L46.2315-26.7285L12.4385-26.7285ZM55.1196 0L57.7637 0L30.6382-70.459L29.4326-70.459L29.4326-67.1323Z"/>
  </g>
  <line id="Baseline-S" style="fill:none;stroke:#27AAE1;opacity:1;stroke-width:0.5;" x1="263" x2="3036" y1="696" y2="696"/>
  <line id="Capline-S" style="fill:none;stroke:#27AAE1;opacity:1;stroke-width:0.5;" x1="263" x2="3036" y1="625.541" y2="625.541"/>
  <g id="H-reference" style="fill:#27AAE1;stroke:none;" transform="matrix(1 0 0 1 339 1126)">
   <path d="M0.993654 0L3.63775 0L29.3281-67.1323L30.0303-67.1323L30.0303-70.459L28.1226-70.459ZM11.6885-24.4799L46.9815-24.4799L46.2315-26.7285L12.4385-26.7285ZM55.1196 0L57.7637 0L30.6382-70.459L29.4326-70.459L29.4326-67.1323Z"/>
  </g>
  <line id="Baseline-M" style="fill:none;stroke:#27AAE1;opacity:1;stroke-width:0.5;" x1="263" x2="3036" y1="1126" y2="1126"/>
  <line id="Capline-M" style="fill:none;stroke:#27AAE1;opacity:1;stroke-width:0.5;" x1="263" x2="3036" y1="1055.54" y2="1055.54"/>
  <g id="H-reference" style="fill:#27AAE1;stroke:none;" transform="matrix(1 0 0 1 339 1556)">
   <path d="M0.993654 0L3.63775 0L29.3281-67.1323L30.0303-67.1323L30.0303-70.459L28.1226-70.459ZM11.6885-24.4799L46.9815-24.4799L46.2315-26.7285L12.4385-26.7285ZM55.1196 0L57.7637 0L30.6382-70.459L29.4326-70.459L29.4326-67.1323Z"/>
  </g>
  <line id="Baseline-L" style="fill:none;stroke:#27AAE1;opacity:1;stroke-width:0.5;" x1="263" x2="3036" y1="1556" y2="1556"/>
  <line id="Capline-L" style="fill:none;stroke:#27AAE1;opacity:1;stroke-width:0.5;" x1="263" x2="3036" y1="1485.54" y2="1485.54"/>
  <line id="right-margin-Black-S" style="fill:none;stroke:#00AEEF;stroke-width:0.5;opacity:1.0;" x1="2987.31" x2="2987.31" y1="600.785" y2="720.121"/>
  <line id="left-margin-Black-S" style="fill:none;stroke:#00AEEF;stroke-width:0.5;opacity:1.0;" x1="2879.49" x2="2879.49" y1="600.785" y2="720.121"/>
  <line id="right-margin-Regular-S" style="fill:none;stroke:#00AEEF;stroke-width:0.5;opacity:1.0;" x1="1500.16" x2="1500.16" y1="600.785" y2="720.121"/>
  <line id="left-margin-Regular-S" style="fill:none;stroke:#00AEEF;stroke-width:0.5;opacity:1.0;" x1="1399.53" x2="1399.53" y1="600.785" y2="720.121"/>
  <line id="right-margin-Ultralight-S" style="fill:none;stroke:#00AEEF;stroke-width:0.5;opacity:1.0;" x1="605.711" x2="605.711" y1="600.785" y2="720.121"/>
  <line id="left-margin-Ultralight-S" style="fill:none;stroke:#00AEEF;stroke-width:0.5;opacity:1.0;" x1="513.711" x2="513.711" y1="600.785" y2="720.121"/>
 </g>
 <g id="Symbols">
  <g id="Black-S" transform="matrix(1 0 0 1 2879.49 696)">
   <path class="monochrome-0 multicolor-0:tintColor hierarchical-0:secondary SFSymbolsPreview007AFF" d="M84.9599-51.2301C87.7386-51.2301 89.9911-48.9775 89.9911-46.1989L89.9911-41.8106L89.9659-41.2968C89.7081-38.7599 87.5648-36.7793 84.9599-36.7793C82.355-36.7793 80.2117-38.7599 79.9539-41.2968L79.9286-41.8106L79.9286-46.1989C79.9287-48.9775 82.1812-51.2301 84.9599-51.2301ZM84.9599-33.6825C87.7381-33.6825 89.9904-31.4293 89.9911-28.6513L89.9911-24.2629L89.9659-23.7492C89.7087-21.2116 87.5653-19.2317 84.9599-19.2317C82.3545-19.2317 80.2111-21.2116 79.9539-23.7492L79.9286-24.2629L79.9286-28.6513C79.9294-31.4293 82.1817-33.6825 84.9599-33.6825ZM23.0014-51.2301C25.7794-51.2294 28.0327-48.9771 28.0327-46.1989L28.0327-41.8106L28.0074-41.2968C27.7496-38.7603 25.6057-36.78 23.0014-36.7793C20.3966-36.7793 18.2533-38.76 17.9954-41.2968L17.9702-41.8106L17.9702-46.1989C17.9702-48.9775 20.2227-51.2301 23.0014-51.2301ZM47.8404-71.2933C50.3766-71.0349 52.3578-68.8918 52.3578-66.2874C52.3578-63.6825 50.3745-61.5392 47.8376-61.2814L47.3238-61.2561L42.9355-61.2561C40.1575-61.2569 37.907-63.5091 37.907-66.2874C37.907-69.066 40.1596-71.3186 42.9383-71.3186L47.3266-71.3186L47.8404-71.2933ZM47.8404-9.1832C50.3766-8.9248 52.3578-6.7817 52.3578-4.1773C52.3578-1.5724 50.3744 0.5709 47.8376 0.8287L47.3238 0.854L42.9355 0.854C40.1575 0.8532 37.907-1.399 37.907-4.1773C37.907-6.9559 40.1596-9.2085 42.9383-9.2085L47.3266-9.2085L47.8404-9.1832ZM23.0014-33.6825C25.779-33.6817 28.0319-31.4288 28.0327-28.6513L28.0327-24.2629L28.0074-23.7492C27.7503-21.2121 25.6061-19.2324 23.0014-19.2317C20.3961-19.2317 18.2527-21.2117 17.9954-23.7492L17.9702-24.2629L17.9702-28.6513C17.9709-31.4293 20.2232-33.6825 23.0014-33.6825ZM65.388-71.2933C67.9249-71.0355 69.9055-68.8922 69.9055-66.2874C69.9055-63.682 67.9227-61.5386 65.3852-61.2814L64.8714-61.2561L60.4831-61.2561C57.7057-61.2576 55.4547-63.5096 55.4547-66.2874C55.4547-69.0656 57.7079-71.3179 60.4859-71.3186L64.8742-71.3186L65.388-71.2933ZM65.388-9.1832C67.9249-8.9254 69.9055-6.7821 69.9055-4.1773C69.9055-1.5719 67.9227 0.5715 65.3852 0.8287L64.8714 0.854L60.4831 0.854C57.7057 0.8525 55.4547-1.3995 55.4547-4.1773C55.4547-6.9555 57.7079-9.2078 60.4859-9.2085L64.8742-9.2085L65.388-9.1832Z"/>
   <path class="monochrome-1 multicolor-1:tintColor hierarchical-1:primary SFSymbolsPreview007AFF" d="M84.9613-17.1148C92.108-17.1148 97.9016-11.3204 97.9016-4.1744C97.9009 2.9709 92.1076 8.7631 84.9613 8.7631C77.815 8.7631 72.0218 2.9709 72.021-4.1744C72.021-11.3204 77.8146-17.1148 84.9613-17.1148ZM22.8512-17.1148C29.9975-17.1148 35.7915-11.3204 35.7915-4.1744C35.7907 2.9709 29.9971 8.7631 22.8512 8.7631C15.7056 8.7627 9.91165 2.9706 9.91089-4.1744C9.91089-11.3202 15.7052-17.1144 22.8512-17.1148ZM84.9613-79.2249C92.1073-79.2245 97.9016-73.4303 97.9016-66.2846C97.9009-59.1395 92.1069-53.3474 84.9613-53.3471C77.8154-53.3471 72.0218-59.1392 72.021-66.2846C72.021-73.4305 77.815-79.2249 84.9613-79.2249ZM22.8512-79.2249C29.9975-79.2249 35.7915-73.4305 35.7915-66.2846C35.7907-59.1392 29.9971-53.3471 22.8512-53.3471C15.7056-53.3474 9.91165-59.1395 9.91089-66.2846C9.91089-73.4303 15.7052-79.2245 22.8512-79.2249Z"/>
  </g>
  <g id="Regular-S" transform="matrix(1 0 0 1 1399.53 696)">
   <path class="monochrome-0 multicolor-0:tintColor hierarchical-0:secondary SFSymbolsPreview007AFF" d="M82.2716-54.0321C84.216-54.0314 85.7924-52.456 85.7924-50.5114L85.7896-40.5724L85.7727-40.213C85.5924-38.4371 84.0923-37.0516 82.2688-37.0516C80.4458-37.0524 78.945-38.4374 78.7649-40.213L78.748-40.5724L78.7509-50.5114C78.7509-52.4564 80.3265-54.0321 82.2716-54.0321ZM82.2688-33.4102C84.2136-33.4102 85.7892-31.8342 85.7896-29.8894L85.7896-19.9504L85.7727-19.5911C85.5927-17.8148 84.0926-16.4269 82.2688-16.4269C80.4456-16.4276 78.9447-17.8151 78.7649-19.5911L78.748-19.9504L78.748-29.8894C78.7484-31.8337 80.3246-33.4094 82.2688-33.4102ZM18.3562-54.0321C20.3006-54.0314 21.877-52.456 21.877-50.5114L21.877-40.5724L21.8601-40.213C21.68-38.4374 20.1792-37.0524 18.3562-37.0516C16.5327-37.0516 15.0326-38.4371 14.8523-40.213L14.8354-40.5724L14.8354-50.5114C14.8354-52.4564 16.4111-54.0321 18.3562-54.0321ZM45.329-70.6925C47.1051-70.5123 48.4904-69.0122 48.4904-67.1886C48.4904-65.365 47.1051-63.8649 45.329-63.6847L44.9696-63.6679L35.0306-63.6679C33.0861-63.6685 31.5099-65.2439 31.5099-67.1886C31.5099-69.1333 33.0861-70.7087 35.0306-70.7094L44.9696-70.7094L45.329-70.6925ZM45.329-6.7771C47.1051-6.5969 48.4904-5.0968 48.4904-3.2732C48.4904-1.4496 47.1051 0.0505 45.329 0.2307L44.9696 0.2476L35.0306 0.2476C33.0861 0.2469 31.5099-1.3285 31.5099-3.2732C31.5099-5.2179 33.0861-6.7933 35.0306-6.794L44.9696-6.794L45.329-6.7771ZM18.3562-33.4102C20.3004-33.4094 21.8766-31.8337 21.877-29.8894L21.877-19.9504L21.8601-19.5911C21.6802-17.8146 20.1773-16.4269 18.3534-16.4269C16.5303-16.4276 15.0323-17.8152 14.8523-19.5911L14.8354-19.9504L14.8354-29.8894C14.8358-31.8342 16.4114-33.4102 18.3562-33.4102ZM65.9509-70.6925C67.7274-70.5126 69.1151-69.0125 69.1151-67.1886C69.1151-65.3647 67.7274-63.8646 65.9509-63.6847L65.5916-63.6679L55.6526-63.6679C53.7084-63.6689 52.1318-65.2442 52.1318-67.1886C52.1318-69.133 53.7084-70.7083 55.6526-70.7094L65.5916-70.7094L65.9509-70.6925ZM65.9509-6.7771C67.7274-6.5972 69.1151-5.0971 69.1151-3.2732C69.1151-1.4493 67.7274 0.0508 65.9509 0.2307L65.5916 0.2476L55.6526 0.2476C53.7084 0.2465 52.1318-1.3288 52.1318-3.2732C52.1318-5.2176 53.7084-6.7929 55.6526-6.794L65.5916-6.794L65.9509-6.7771Z"/>
   <path class="monochrome-1 multicolor-1:tintColor hierarchical-1:primary SFSymbolsPreview007AFF" d="M82.2688-12.5748C87.3924-12.5748 91.548-8.4104 91.548-3.2732C91.548 1.864 87.3924 6.0284 82.2688 6.0284C77.1455 6.0281 72.9924 1.8637 72.9924-3.2732C72.9924-8.4101 77.1455-12.5745 82.2688-12.5748ZM18.3534-12.5748C23.477-12.5748 27.6326-8.4104 27.6326-3.2732C27.6326 1.864 23.477 6.0284 18.3534 6.0284C13.2301 6.0281 9.07703 1.8637 9.07703-3.2732C9.07703-8.4101 13.2301-12.5745 18.3534-12.5748ZM82.2688-76.4902C87.3924-76.4902 91.548-72.3258 91.548-67.1886C91.548-62.0515 87.3924-57.887 82.2688-57.887C77.1455-57.8874 72.9924-62.0517 72.9924-67.1886C72.9924-72.3255 77.1455-76.4899 82.2688-76.4902ZM18.3534-76.4902C23.477-76.4902 27.6326-72.3258 27.6326-67.1886C27.6326-62.0515 23.477-57.887 18.3534-57.887C13.2301-57.8874 9.07703-62.0517 9.07703-67.1886C9.07703-72.3255 13.2301-76.4899 18.3534-76.4902Z"/>
  </g>
  <g id="Ultralight-S" transform="matrix(1 0 0 1 513.711 696)">
   <path class="monochrome-0 multicolor-0:tintColor hierarchical-0:secondary SFSymbolsPreview007AFF" d="M76.6086-53.1056C77.2438-53.1056 77.7598-52.5896 77.7598-51.9545L77.7598-40.0418L77.7345-39.8087C77.6269-39.2852 77.164-38.8906 76.6086-38.8906C76.0532-38.8906 75.5904-39.2852 75.4828-39.8087L75.4575-40.0418L75.4575-51.9545C75.4575-52.5896 75.9735-53.1056 76.6086-53.1056ZM76.6086-31.5824C77.2438-31.5824 77.7598-31.0664 77.7598-30.4313L77.7598-18.5186L77.7345-18.2855C77.6269-17.762 77.164-17.3674 76.6086-17.3674C76.0533-17.3674 75.5904-17.762 75.4828-18.2855L75.4575-18.5186L75.4575-30.4313C75.4575-31.0664 75.9735-31.5824 76.6086-31.5824ZM15.3633-53.1056C15.9984-53.1056 16.5144-52.5896 16.5144-51.9545L16.5144-40.0418L16.4891-39.8087C16.3815-39.2852 15.9187-38.8906 15.3633-38.8906C14.8079-38.8906 14.345-39.2852 14.2374-39.8087L14.2122-40.0418L14.2122-51.9545C14.2122-52.5896 14.7282-53.1056 15.3633-53.1056ZM41.4152-66.9837C41.9381-66.8755 42.3333-66.4127 42.3333-65.8578C42.3333-65.3024 41.9359-64.8395 41.4124-64.7319L41.1793-64.7067L29.2666-64.7067C28.6321-64.7074 28.1183-65.2231 28.1183-65.8578C28.1183-66.4929 28.6343-67.0089 29.2694-67.0089L41.1821-67.0089L41.4152-66.9837ZM41.4152-5.7383C41.9381-5.6302 42.3333-5.1674 42.3333-4.6124C42.3333-4.057 41.9359-3.5942 41.4124-3.4866L41.1793-3.4613L29.2666-3.4613C28.6321-3.4621 28.1183-3.9778 28.1183-4.6124C28.1183-5.2476 28.6343-5.7636 29.2694-5.7636L41.1821-5.7636L41.4152-5.7383ZM15.3633-31.5824C15.9984-31.5824 16.5144-31.0664 16.5144-30.4313L16.5144-18.5186L16.4891-18.2855C16.3815-17.762 15.9186-17.3674 15.3633-17.3674C14.8079-17.3674 14.3451-17.762 14.2374-18.2855L14.2122-18.5186L14.2122-30.4313C14.2122-31.0664 14.7282-31.5824 15.3633-31.5824ZM62.9384-66.9837C63.4612-66.8755 63.8564-66.4127 63.8564-65.8578C63.8564-65.3024 63.4591-64.8396 62.9355-64.7319L62.7025-64.7067L50.7898-64.7067C50.1553-64.7074 49.6415-65.2231 49.6415-65.8578C49.6415-66.4929 50.1575-67.0089 50.7926-67.0089L62.7053-67.0089L62.9384-66.9837ZM62.9384-5.7383C63.4612-5.6301 63.8564-5.1673 63.8564-4.6124C63.8564-4.0571 63.4591-3.5942 62.9355-3.4866L62.7025-3.4613L50.7898-3.4613C50.1553-3.4621 49.6415-3.9778 49.6415-4.6124C49.6415-5.2476 50.1575-5.7636 50.7926-5.7636L62.7053-5.7636L62.9384-5.7383Z"/>
   <path class="monochrome-1 multicolor-1:tintColor hierarchical-1:primary SFSymbolsPreview007AFF" d="M76.6423-11.5753C80.4864-11.5746 83.6024-8.4575 83.6024-4.6124C83.6024-0.7674 80.4864 2.3497 76.6423 2.3505C72.7976 2.3505 69.6794-0.7669 69.6794-4.6124C69.6794-8.4579 72.7976-11.5753 76.6423-11.5753ZM15.3605-11.5753C19.2046-11.5746 22.3206-8.4575 22.3206-4.6124C22.3206-0.7674 19.2046 2.3497 15.3605 2.3505C11.5158 2.3505 8.39758-0.7669 8.39758-4.6124C8.39758-8.4579 11.5158-11.5753 15.3605-11.5753ZM76.6423-72.8123C80.4864-72.8115 83.6024-69.6944 83.6024-65.8494C83.6024-62.0043 80.4864-58.8872 76.6423-58.8865C72.7976-58.8865 69.6794-62.0039 69.6794-65.8494C69.6794-69.6949 72.7976-72.8123 76.6423-72.8123ZM15.3577-72.8123C19.2024-72.8123 22.3206-69.6949 22.3206-65.8494C22.3206-62.0039 19.2024-58.8865 15.3577-58.8865C11.5136-58.8872 8.39758-62.0043 8.39758-65.8494C8.39758-69.6944 11.5136-72.8115 15.3577-72.8123Z"/>
  </g>
 </g>
</svg>
