<svg fill="none" height="28" viewBox="0 0 28 28" width="28" xmlns="http://www.w3.org/2000/svg"><path d="m6.71761 20.8008 1.65625-2.1953c.34375-.4531.15625-1.0391-.44531-1.0391h-1.07031v-8.10933h1.07031c.59375 0 .80469-.57031.44531-1.03125l-1.65625-2.20313c-.23437-.30468-.66406-.28906-.89062 0l-1.65625 2.20313c-.35157.46875-.14063 1.03125.45312 1.03125h1.07031v8.10933h-1.07031c-.59375 0-.80469.5704-.45312 1.0391l1.65625 2.1953c.23437.3047.65625.3125.89062 0zm5.07149-8.4961h10.8203c.4375 0 .789-.3672.789-.8047s-.3515-.7969-.789-.7969h-10.8203c-.4453 0-.7891.3672-.7891.7969s.3516.8047.7891.8047zm0 3.9922h7.8359c.4453 0 .7969-.3672.7969-.7969 0-.4453-.3516-.7969-.7969-.7969h-7.8359c-.4453 0-.7891.3594-.7891.7969 0 .4297.3516.7969.7891.7969z" fill="#000"/></svg>